<svg width="64" height="64" viewBox="0 0 64 64" fill="none" xmlns="http://www.w3.org/2000/svg">
<g clip-path="url(#clip0_6_566)">
<path d="M30.9394 43.0607C31.5252 43.6464 32.475 43.6464 33.0608 43.0607L42.6067 33.5147C43.1925 32.9289 43.1925 31.9792 42.6067 31.3934C42.0209 30.8076 41.0711 30.8076 40.4853 31.3934L32.0001 39.8787L23.5148 31.3934C22.929 30.8076 21.9793 30.8076 21.3935 31.3934C20.8077 31.9792 20.8077 32.9289 21.3935 33.5147L30.9394 43.0607ZM30.5001 22V42H33.5001V22H30.5001Z" fill="#3A4443"/>
<path d="M63 32C63 14.8792 49.1208 1 32 1C14.8792 1 1 14.8792 1 32C1 49.1208 14.8792 63 32 63C49.1208 63 63 49.1208 63 32Z" stroke="#3A4443" stroke-width="2"/>
</g>
<defs>
<clipPath id="clip0_6_566">
<rect width="64" height="64" fill="white"/>
</clipPath>
</defs>
</svg>
