<svg width="237" height="59" viewBox="0 0 237 59" fill="none" xmlns="http://www.w3.org/2000/svg">
<g clip-path="url(#clip0_210_80)">
<mask id="mask0_210_80" style="mask-type:luminance" maskUnits="userSpaceOnUse" x="0" y="0" width="59" height="59">
<path d="M58.8391 0H0V58.8497H58.8391V0Z" fill="white"/>
</mask>
<g mask="url(#mask0_210_80)">
<mask id="mask1_210_80" style="mask-type:luminance" maskUnits="userSpaceOnUse" x="-101" y="0" width="261" height="97">
<path d="M159.222 0.0488281H-100.309V96.3348H159.222V0.0488281Z" fill="white"/>
</mask>
<g mask="url(#mask1_210_80)">
<mask id="mask2_210_80" style="mask-type:luminance" maskUnits="userSpaceOnUse" x="-101" y="-1" width="260" height="98">
<path d="M158.991 -0.0888367H-100.077V96.4724H158.991V-0.0888367Z" fill="white"/>
</mask>
<g mask="url(#mask2_210_80)">
<mask id="mask3_210_80" style="mask-type:luminance" maskUnits="userSpaceOnUse" x="-101" y="-1" width="260" height="98">
<path d="M158.991 -0.0888367H-100.077V96.4724H158.991V-0.0888367Z" fill="white"/>
</mask>
<g mask="url(#mask3_210_80)">
<mask id="mask4_210_80" style="mask-type:luminance" maskUnits="userSpaceOnUse" x="0" y="-1" width="59" height="60">
<path d="M58.8209 -0.0888367H0.0924988V58.6395H58.8209V-0.0888367Z" fill="white"/>
</mask>
<g mask="url(#mask4_210_80)">
<mask id="mask5_210_80" style="mask-type:luminance" maskUnits="userSpaceOnUse" x="0" y="-1" width="59" height="60">
<path d="M58.8209 -0.0888367H0.0924988V58.6395H58.8209V-0.0888367Z" fill="white"/>
</mask>
<g mask="url(#mask5_210_80)">
<path d="M0.0924988 29.2751C0.0924988 13.0578 13.2391 -0.0888367 29.4564 -0.0888367C45.6738 -0.0888367 58.8204 13.0578 58.8211 29.2751C58.8211 45.4925 45.6745 58.6391 29.4564 58.6398C13.2391 58.6398 0.0924988 45.493 0.0924988 29.2751ZM29.4564 56.3223C44.3939 56.3223 56.5029 44.2131 56.5036 29.2751C56.5036 14.3377 44.3945 2.22857 29.4564 2.22857C14.519 2.22857 2.40991 14.3377 2.40991 29.2751C2.40991 44.2125 14.519 56.3216 29.4564 56.3223Z" fill="black"/>
<path d="M29.4567 58.346C45.512 58.346 58.5273 45.3305 58.5273 29.2754C58.5273 13.2201 45.512 0.204803 29.4567 0.204803C13.4015 0.204803 0.386139 13.2201 0.386139 29.2754C0.386139 45.3305 13.4015 58.346 29.4567 58.346Z" fill="black"/>
<mask id="mask6_210_80" style="mask-type:luminance" maskUnits="userSpaceOnUse" x="14" y="15" width="31" height="28">
<path d="M44.8446 15.811H14.0689V42.7396H44.8446V15.811Z" fill="white"/>
</mask>
<g mask="url(#mask6_210_80)">
<mask id="mask7_210_80" style="mask-type:luminance" maskUnits="userSpaceOnUse" x="14" y="15" width="31" height="28">
<path d="M44.8446 15.811H14.0689V42.7396H44.8446V15.811Z" fill="white"/>
</mask>
<g mask="url(#mask7_210_80)">
<path d="M44.2836 29.6924L40.5089 20.4273H42.1516C42.5767 20.4273 42.921 20.083 42.921 19.6581V18.8887C42.921 18.5032 42.6355 18.1768 42.2532 18.1262L31.234 16.6566C30.7997 16.1273 30.1492 15.811 29.4567 15.811C28.7643 15.811 28.1137 16.1273 27.6795 16.6566L16.6598 18.1258C16.2778 18.1768 15.9924 18.5032 15.9924 18.8887V19.6581C15.9924 20.083 16.3367 20.4273 16.7618 20.4273H18.4044L14.6298 29.6924C14.3067 29.7832 14.0689 30.0774 14.0689 30.4295V31.5835C14.0689 32.0086 14.4132 32.3529 14.8383 32.3529H14.9045L16.2178 33.6663C16.3621 33.8105 16.5579 33.8918 16.7618 33.8918H21.7629C21.9667 33.8918 22.1625 33.8105 22.3068 33.6663L23.6201 32.3529H23.6863C24.1114 32.3529 24.4557 32.0086 24.4557 31.5835V30.4295C24.4557 30.0774 24.218 29.7832 23.8948 29.6924L20.1202 20.4273H27.9179V36.5845H27.5333C27.1082 36.5845 26.7638 36.9288 26.7638 37.3539V38.5742L25.2913 40.0468H24.4557C24.0306 40.0468 23.6863 40.3911 23.6863 40.8162V41.9703C23.6863 42.3954 24.0306 42.7397 24.4557 42.7397H34.4577C34.8828 42.7397 35.2271 42.3954 35.2271 41.9703V40.8162C35.2271 40.3911 34.8828 40.0468 34.4577 40.0468H33.6222L32.1496 38.5742V37.3539C32.1496 36.9288 31.8053 36.5845 31.3802 36.5845H30.9954V20.4273H38.7933L35.0187 29.6924C34.6954 29.7832 34.4577 30.0774 34.4577 30.4295V31.5835C34.4577 32.0086 34.802 32.3529 35.2271 32.3529H35.2932L36.6066 33.6663C36.7509 33.8105 36.9471 33.8918 37.1506 33.8918H42.1516C42.3551 33.8918 42.5513 33.8105 42.6956 33.6663L44.009 32.3529H44.0751C44.5002 32.3529 44.8445 32.0086 44.8445 31.5835V30.4295C44.8445 30.0774 44.6068 29.7832 44.2836 29.6924ZM23.3015 31.1989H15.223V30.8141H23.3015V31.1989ZM22.7576 31.5835L21.6035 32.7376H16.921L15.7669 31.5835H22.7576ZM15.8885 29.66L19.2624 21.3798L22.6361 29.66H15.8885ZM30.9859 19.2733C31.2298 18.9509 31.3802 18.5539 31.3802 18.1192C31.3802 18.0223 31.3655 17.9296 31.3517 17.8369L41.767 19.2252V19.2733H30.9859ZM34.0731 41.2009V41.5857H24.8404V41.2009H34.0731ZM26.1538 40.8162L27.6978 39.272C27.7075 39.2732 27.716 39.2774 27.7257 39.2774H31.1878C31.1975 39.2774 31.206 39.2732 31.2155 39.272L32.7597 40.8162H26.1538ZM17.1465 19.2733V19.2252L27.5616 17.8365C27.5478 17.9296 27.5333 18.0223 27.5333 18.1192C27.5333 18.5539 27.6836 18.9509 27.9279 19.2733H17.1465ZM30.6108 18.1192C30.6108 18.7554 30.0929 19.2733 29.4567 19.2733C28.8204 19.2733 28.3027 18.7554 28.3027 18.1192C28.3027 17.4829 28.8204 16.9651 29.4567 16.9651C30.0929 16.9651 30.6108 17.4829 30.6108 18.1192ZM29.0719 20.0038C29.1963 20.0292 29.3251 20.0427 29.4567 20.0427C29.5882 20.0427 29.7171 20.0292 29.8414 20.0038V36.9693H29.0719V20.0038ZM30.9954 37.7387V38.8928H27.9179V37.7387H30.9954ZM43.6904 31.1989H35.6118V30.8141H43.6904V31.1989ZM43.1465 31.5835L41.9924 32.7376H37.3098L36.1557 31.5835H43.1465ZM36.2774 29.66L39.6511 21.3798L43.0248 29.66H36.2774Z" fill="white"/>
</g>
</g>
</g>
</g>
</g>
</g>
</g>
</g>
<path d="M67.52 8L68.86 1.65H66.9L67.07 0.86H71.89L71.73 1.65H69.77L68.42 8H67.52ZM70.2917 10.4L71.9317 2.64H72.6517L72.5317 3.64H72.5717C72.7317 3.44 72.9017 3.26 73.0817 3.1C73.2617 2.93333 73.4584 2.8 73.6717 2.7C73.8851 2.6 74.1151 2.55 74.3617 2.55C74.6484 2.55 74.8984 2.62 75.1117 2.76C75.3317 2.89333 75.5017 3.09667 75.6217 3.37C75.7484 3.63667 75.8117 3.97333 75.8117 4.38C75.8117 4.77333 75.7717 5.15333 75.6917 5.52C75.6184 5.88667 75.5051 6.22667 75.3517 6.54C75.2051 6.84667 75.0251 7.12 74.8117 7.36C74.6051 7.59333 74.3651 7.77667 74.0917 7.91C73.8184 8.03667 73.5217 8.1 73.2017 8.1C72.9617 8.1 72.7517 8.05667 72.5717 7.97C72.3984 7.88333 72.2517 7.77 72.1317 7.63C72.0117 7.49 71.9117 7.34 71.8317 7.18H71.7817C71.7751 7.28667 71.7584 7.43667 71.7317 7.63C71.7051 7.81667 71.6784 7.97 71.6517 8.09L71.1617 10.4H70.2917ZM73.1317 7.37C73.3451 7.37 73.5417 7.31667 73.7217 7.21C73.9084 7.09667 74.0751 6.94333 74.2217 6.75C74.3684 6.55 74.4917 6.32333 74.5917 6.07C74.6984 5.81 74.7784 5.53667 74.8317 5.25C74.8851 4.95667 74.9117 4.66 74.9117 4.36C74.9117 4 74.8384 3.73 74.6917 3.55C74.5517 3.37 74.3417 3.28 74.0617 3.28C73.9151 3.28 73.7651 3.31667 73.6117 3.39C73.4584 3.46333 73.3084 3.57 73.1617 3.71C73.0151 3.84333 72.8784 4.00333 72.7517 4.19C72.6251 4.37667 72.5117 4.58333 72.4117 4.81C72.3184 5.03 72.2451 5.26667 72.1917 5.52C72.1384 5.76667 72.1117 6.02333 72.1117 6.29C72.1117 6.61 72.1951 6.87 72.3617 7.07C72.5284 7.27 72.7851 7.37 73.1317 7.37ZM78.7227 8.1C78.3094 8.1 77.9561 8.02 77.6627 7.86C77.3761 7.69333 77.1561 7.46 77.0027 7.16C76.8561 6.85333 76.7827 6.49333 76.7827 6.08C76.7827 5.65333 76.8427 5.23333 76.9627 4.82C77.0894 4.4 77.2694 4.02 77.5027 3.68C77.7361 3.33333 78.0161 3.05667 78.3427 2.85C78.6761 2.64333 79.0494 2.54 79.4627 2.54C79.9694 2.54 80.3494 2.65 80.6027 2.87C80.8627 3.09 80.9927 3.39667 80.9927 3.79C80.9927 4.05 80.9327 4.29667 80.8127 4.53C80.6927 4.75667 80.5061 4.95667 80.2527 5.13C79.9994 5.30333 79.6761 5.44 79.2827 5.54C78.8894 5.63333 78.4161 5.68 77.8627 5.68H77.6927C77.6861 5.74 77.6794 5.80333 77.6727 5.87C77.6727 5.93667 77.6727 5.99667 77.6727 6.05C77.6727 6.45667 77.7727 6.78 77.9727 7.02C78.1727 7.25333 78.4761 7.37 78.8827 7.37C79.1361 7.37 79.3761 7.33333 79.6027 7.26C79.8294 7.18667 80.0761 7.08667 80.3427 6.96V7.71C80.0894 7.82333 79.8394 7.91667 79.5927 7.99C79.3527 8.06333 79.0627 8.1 78.7227 8.1ZM77.8927 4.97C78.2927 4.97 78.6627 4.93667 79.0027 4.87C79.3427 4.79667 79.6161 4.68 79.8227 4.52C80.0294 4.35333 80.1327 4.13333 80.1327 3.86C80.1327 3.68667 80.0727 3.54667 79.9527 3.44C79.8394 3.32667 79.6594 3.27 79.4127 3.27C79.1994 3.27 78.9894 3.33667 78.7827 3.47C78.5761 3.60333 78.3894 3.79667 78.2227 4.05C78.0561 4.30333 77.9227 4.61 77.8227 4.97H77.8927ZM81.573 8L82.713 2.64H83.433L83.323 3.63H83.373C83.493 3.46333 83.633 3.29667 83.793 3.13C83.9596 2.96333 84.1496 2.82333 84.363 2.71C84.583 2.59667 84.8296 2.54 85.103 2.54C85.4696 2.54 85.7496 2.64667 85.943 2.86C86.143 3.06667 86.263 3.35667 86.303 3.73H86.343C86.4763 3.53 86.633 3.34 86.813 3.16C86.9996 2.98 87.2063 2.83333 87.433 2.72C87.6596 2.6 87.9096 2.54 88.183 2.54C88.5963 2.54 88.9163 2.65333 89.143 2.88C89.3696 3.10667 89.483 3.43333 89.483 3.86C89.483 4.02 89.473 4.17 89.453 4.31C89.433 4.44333 89.4063 4.58667 89.373 4.74L88.683 8H87.793L88.513 4.64C88.5463 4.48667 88.5696 4.35667 88.583 4.25C88.5963 4.14333 88.603 4.04 88.603 3.94C88.603 3.74 88.5463 3.58 88.433 3.46C88.3263 3.34 88.1563 3.28 87.923 3.28C87.763 3.28 87.593 3.32667 87.413 3.42C87.233 3.50667 87.0563 3.64333 86.883 3.83C86.7096 4.01667 86.553 4.25667 86.413 4.55C86.273 4.83667 86.1596 5.18 86.073 5.58L85.563 8H84.683L85.393 4.64C85.4263 4.48667 85.4496 4.36 85.463 4.26C85.4763 4.15333 85.483 4.06 85.483 3.98C85.483 3.76 85.433 3.59 85.333 3.47C85.233 3.34333 85.0663 3.28 84.833 3.28C84.673 3.28 84.4996 3.32333 84.313 3.41C84.133 3.49667 83.9563 3.63667 83.783 3.83C83.6096 4.01667 83.4496 4.26333 83.303 4.57C83.1563 4.87667 83.0363 5.25 82.943 5.69L82.453 8H81.573ZM92.463 8.1C92.0496 8.1 91.6963 8.02 91.403 7.86C91.1163 7.69333 90.8963 7.46 90.743 7.16C90.5963 6.85333 90.523 6.49333 90.523 6.08C90.523 5.65333 90.583 5.23333 90.703 4.82C90.8296 4.4 91.0096 4.02 91.243 3.68C91.4763 3.33333 91.7563 3.05667 92.083 2.85C92.4163 2.64333 92.7896 2.54 93.203 2.54C93.7096 2.54 94.0896 2.65 94.343 2.87C94.603 3.09 94.733 3.39667 94.733 3.79C94.733 4.05 94.673 4.29667 94.553 4.53C94.433 4.75667 94.2463 4.95667 93.993 5.13C93.7396 5.30333 93.4163 5.44 93.023 5.54C92.6296 5.63333 92.1563 5.68 91.603 5.68H91.433C91.4263 5.74 91.4196 5.80333 91.413 5.87C91.413 5.93667 91.413 5.99667 91.413 6.05C91.413 6.45667 91.513 6.78 91.713 7.02C91.913 7.25333 92.2163 7.37 92.623 7.37C92.8763 7.37 93.1163 7.33333 93.343 7.26C93.5696 7.18667 93.8163 7.08667 94.083 6.96V7.71C93.8296 7.82333 93.5796 7.91667 93.333 7.99C93.093 8.06333 92.803 8.1 92.463 8.1ZM91.633 4.97C92.033 4.97 92.403 4.93667 92.743 4.87C93.083 4.79667 93.3563 4.68 93.563 4.52C93.7696 4.35333 93.873 4.13333 93.873 3.86C93.873 3.68667 93.813 3.54667 93.693 3.44C93.5796 3.32667 93.3996 3.27 93.153 3.27C92.9396 3.27 92.7296 3.33667 92.523 3.47C92.3163 3.60333 92.1296 3.79667 91.963 4.05C91.7963 4.30333 91.663 4.61 91.563 4.97H91.633ZM98.6332 1.94C98.2599 1.94 97.9565 1.89 97.7232 1.79C97.4899 1.68333 97.3199 1.54 97.2132 1.36C97.1065 1.18 97.0532 0.97 97.0532 0.729999C97.0532 0.669999 97.0565 0.609999 97.0632 0.549999C97.0765 0.483333 97.0865 0.433333 97.0932 0.399999H97.8632C97.8565 0.453333 97.8499 0.503333 97.8432 0.549999C97.8365 0.59 97.8332 0.633333 97.8332 0.679999C97.8332 0.866666 97.8965 1.02 98.0232 1.14C98.1565 1.25333 98.3765 1.31 98.6832 1.31C98.9965 1.31 99.2532 1.25 99.4532 1.13C99.6599 1.00333 99.7965 0.76 99.8632 0.399999H100.703C100.643 0.713333 100.533 0.986666 100.373 1.22C100.213 1.44667 99.9899 1.62333 99.7032 1.75C99.4232 1.87667 99.0665 1.94 98.6332 1.94ZM96.9232 8.1C96.6565 8.1 96.4199 8.05 96.2132 7.95C96.0132 7.85 95.8565 7.7 95.7432 7.5C95.6365 7.3 95.5832 7.05667 95.5832 6.77C95.5832 6.61667 95.5932 6.47333 95.6132 6.34C95.6399 6.2 95.6665 6.05667 95.6932 5.91L96.3932 2.64H97.2832L96.5632 6.01C96.5365 6.15667 96.5132 6.28333 96.4932 6.39C96.4799 6.49667 96.4732 6.59333 96.4732 6.68C96.4732 6.89333 96.5265 7.06333 96.6332 7.19C96.7465 7.31 96.9265 7.37 97.1732 7.37C97.3999 7.37 97.6432 7.29 97.9032 7.13C98.1699 6.97 98.4165 6.71333 98.6432 6.36C98.8699 6.00667 99.0465 5.53667 99.1732 4.95L99.6632 2.64H100.533L99.3932 8H98.6732L98.7832 7.01H98.7332C98.6065 7.17 98.4565 7.33667 98.2832 7.51C98.1165 7.67667 97.9199 7.81667 97.6932 7.93C97.4732 8.04333 97.2165 8.1 96.9232 8.1ZM103.294 8.1C102.901 8.1 102.554 8.02667 102.254 7.88C101.954 7.73333 101.721 7.51333 101.554 7.22C101.388 6.92 101.304 6.54667 101.304 6.1C101.304 5.71333 101.344 5.34667 101.424 5C101.511 4.64667 101.634 4.32 101.794 4.02C101.954 3.72 102.148 3.46 102.374 3.24C102.601 3.02 102.858 2.85 103.144 2.73C103.438 2.60333 103.758 2.54 104.104 2.54C104.338 2.54 104.571 2.56333 104.804 2.61C105.038 2.65667 105.248 2.72 105.434 2.8L105.184 3.53C105.051 3.47 104.891 3.41333 104.704 3.36C104.524 3.30667 104.328 3.28 104.114 3.28C103.888 3.28 103.674 3.33 103.474 3.43C103.281 3.52333 103.104 3.65667 102.944 3.83C102.791 4.00333 102.658 4.21 102.544 4.45C102.438 4.68333 102.354 4.94 102.294 5.22C102.234 5.49333 102.204 5.78333 102.204 6.09C102.204 6.35667 102.251 6.58667 102.344 6.78C102.438 6.97333 102.571 7.12 102.744 7.22C102.924 7.32 103.138 7.37 103.384 7.37C103.618 7.37 103.838 7.33667 104.044 7.27C104.258 7.20333 104.468 7.12667 104.674 7.04V7.78C104.488 7.87333 104.278 7.95 104.044 8.01C103.818 8.07 103.568 8.1 103.294 8.1ZM105.635 8L106.765 2.64H107.635L107.085 5.22L109.585 2.64H110.685L108.035 5.29L109.825 8H108.775L107.075 5.33L106.515 8H105.635ZM112.109 8.1C111.842 8.1 111.605 8.05 111.399 7.95C111.199 7.85 111.042 7.7 110.929 7.5C110.822 7.3 110.769 7.05667 110.769 6.77C110.769 6.61667 110.779 6.47333 110.799 6.34C110.825 6.2 110.852 6.05667 110.879 5.91L111.579 2.64H112.469L111.749 6.01C111.722 6.15667 111.699 6.28333 111.679 6.39C111.665 6.49667 111.659 6.59333 111.659 6.68C111.659 6.89333 111.712 7.06333 111.819 7.19C111.932 7.31 112.112 7.37 112.359 7.37C112.585 7.37 112.829 7.29 113.089 7.13C113.355 6.97 113.602 6.71333 113.829 6.36C114.055 6.00667 114.232 5.53667 114.359 4.95L114.849 2.64H115.719L114.579 8H113.859L113.969 7.01H113.919C113.792 7.17 113.642 7.33667 113.469 7.51C113.302 7.67667 113.105 7.81667 112.879 7.93C112.659 8.04333 112.402 8.1 112.109 8.1ZM119.61 1.94C119.236 1.94 118.933 1.89 118.7 1.79C118.466 1.68333 118.296 1.54 118.19 1.36C118.083 1.18 118.03 0.97 118.03 0.729999C118.03 0.669999 118.033 0.609999 118.04 0.549999C118.053 0.483333 118.063 0.433333 118.07 0.399999H118.84C118.833 0.453333 118.826 0.503333 118.82 0.549999C118.813 0.59 118.81 0.633333 118.81 0.679999C118.81 0.866666 118.873 1.02 119 1.14C119.133 1.25333 119.353 1.31 119.66 1.31C119.973 1.31 120.23 1.25 120.43 1.13C120.636 1.00333 120.773 0.76 120.84 0.399999H121.68C121.62 0.713333 121.51 0.986666 121.35 1.22C121.19 1.44667 120.966 1.62333 120.68 1.75C120.4 1.87667 120.043 1.94 119.61 1.94ZM117.9 8.1C117.633 8.1 117.396 8.05 117.19 7.95C116.99 7.85 116.833 7.7 116.72 7.5C116.613 7.3 116.56 7.05667 116.56 6.77C116.56 6.61667 116.57 6.47333 116.59 6.34C116.616 6.2 116.643 6.05667 116.67 5.91L117.37 2.64H118.26L117.54 6.01C117.513 6.15667 117.49 6.28333 117.47 6.39C117.456 6.49667 117.45 6.59333 117.45 6.68C117.45 6.89333 117.503 7.06333 117.61 7.19C117.723 7.31 117.903 7.37 118.15 7.37C118.376 7.37 118.62 7.29 118.88 7.13C119.146 6.97 119.393 6.71333 119.62 6.36C119.846 6.00667 120.023 5.53667 120.15 4.95L120.64 2.64H121.51L120.37 8H119.65L119.76 7.01H119.71C119.583 7.17 119.433 7.33667 119.26 7.51C119.093 7.67667 118.896 7.81667 118.67 7.93C118.45 8.04333 118.193 8.1 117.9 8.1ZM127.2 8.1C126.807 8.1 126.46 8.02667 126.16 7.88C125.86 7.73333 125.627 7.51333 125.46 7.22C125.294 6.92 125.21 6.54667 125.21 6.1C125.21 5.71333 125.25 5.34667 125.33 5C125.417 4.64667 125.54 4.32 125.7 4.02C125.86 3.72 126.054 3.46 126.28 3.24C126.507 3.02 126.764 2.85 127.05 2.73C127.344 2.60333 127.664 2.54 128.01 2.54C128.244 2.54 128.477 2.56333 128.71 2.61C128.944 2.65667 129.154 2.72 129.34 2.8L129.09 3.53C128.957 3.47 128.797 3.41333 128.61 3.36C128.43 3.30667 128.234 3.28 128.02 3.28C127.794 3.28 127.58 3.33 127.38 3.43C127.187 3.52333 127.01 3.65667 126.85 3.83C126.697 4.00333 126.564 4.21 126.45 4.45C126.344 4.68333 126.26 4.94 126.2 5.22C126.14 5.49333 126.11 5.78333 126.11 6.09C126.11 6.35667 126.157 6.58667 126.25 6.78C126.344 6.97333 126.477 7.12 126.65 7.22C126.83 7.32 127.044 7.37 127.29 7.37C127.524 7.37 127.744 7.33667 127.95 7.27C128.164 7.20333 128.374 7.12667 128.58 7.04V7.78C128.394 7.87333 128.184 7.95 127.95 8.01C127.724 8.07 127.474 8.1 127.2 8.1ZM129.012 10.4C128.852 10.4 128.722 10.39 128.622 10.37C128.515 10.35 128.415 10.3267 128.322 10.3V9.59C128.415 9.61667 128.515 9.63667 128.622 9.65C128.728 9.67 128.842 9.68 128.962 9.68C129.235 9.68 129.465 9.59667 129.652 9.43C129.845 9.26333 130.028 9.02 130.202 8.7L130.552 8.08L129.742 2.64H130.622L130.972 5.29C131.005 5.50333 131.028 5.74 131.042 6C131.062 6.25333 131.075 6.49667 131.082 6.73C131.095 6.95667 131.102 7.14 131.102 7.28H131.132C131.178 7.17333 131.245 7.01333 131.332 6.8C131.425 6.58667 131.525 6.36667 131.632 6.14C131.738 5.91333 131.832 5.72667 131.912 5.58L133.472 2.64H134.412L131.012 8.9C130.832 9.23333 130.648 9.51 130.462 9.73C130.275 9.95667 130.065 10.1233 129.832 10.23C129.598 10.3433 129.325 10.4 129.012 10.4ZM136.18 8.1C135.793 8.1 135.466 8.02 135.2 7.86C134.94 7.69333 134.743 7.46333 134.61 7.17C134.476 6.87667 134.41 6.53667 134.41 6.15C134.41 5.84333 134.443 5.53667 134.51 5.23C134.576 4.91667 134.676 4.62 134.81 4.34C134.95 4.05333 135.12 3.8 135.32 3.58C135.52 3.36 135.75 3.18667 136.01 3.06C136.276 2.93333 136.573 2.87 136.9 2.87C137.166 2.87 137.39 2.91 137.57 2.99C137.75 3.06333 137.896 3.16667 138.01 3.3C138.13 3.42667 138.226 3.56667 138.3 3.72H138.33C138.336 3.66667 138.34 3.61667 138.34 3.57C138.34 3.51667 138.34 3.47333 138.34 3.44C138.34 2.62 138.23 2.01333 138.01 1.62C137.79 1.22667 137.453 1.03 137 1.03C136.833 1.03 136.653 1.05 136.46 1.09C136.273 1.13 136.103 1.18333 135.95 1.25L135.73 0.6C135.89 0.52 136.1 0.45 136.36 0.39C136.62 0.33 136.87 0.3 137.11 0.3C137.603 0.3 138.003 0.42 138.31 0.66C138.623 0.893333 138.853 1.24 139 1.7C139.153 2.15333 139.23 2.71333 139.23 3.38C139.23 3.71333 139.203 4.06333 139.15 4.43C139.096 4.79 139.016 5.14667 138.91 5.5C138.803 5.85333 138.666 6.18667 138.5 6.5C138.34 6.81333 138.146 7.09 137.92 7.33C137.693 7.57 137.436 7.76 137.15 7.9C136.863 8.03333 136.54 8.1 136.18 8.1ZM136.27 7.36C136.47 7.36 136.653 7.31333 136.82 7.22C136.993 7.12 137.15 6.98667 137.29 6.82C137.436 6.64667 137.566 6.44667 137.68 6.22C137.793 5.99333 137.89 5.75 137.97 5.49C138.056 5.23 138.126 4.96 138.18 4.68C138.12 4.46667 138.033 4.27667 137.92 4.11C137.813 3.93667 137.68 3.8 137.52 3.7C137.366 3.6 137.186 3.55 136.98 3.55C136.8 3.55 136.626 3.59333 136.46 3.68C136.293 3.76667 136.14 3.89 136 4.05C135.86 4.21 135.736 4.39667 135.63 4.61C135.523 4.82333 135.44 5.06 135.38 5.32C135.326 5.58 135.3 5.85333 135.3 6.14C135.3 6.48667 135.373 6.77667 135.52 7.01C135.673 7.24333 135.923 7.36 136.27 7.36ZM142.763 8L143.913 2.61H144.693L144.583 3.6H144.593C144.72 3.43333 144.867 3.26667 145.033 3.1C145.207 2.93333 145.407 2.79333 145.633 2.68C145.86 2.56667 146.117 2.51 146.403 2.51C146.69 2.51 146.937 2.56333 147.143 2.67C147.35 2.77667 147.507 2.93 147.613 3.13C147.727 3.33 147.783 3.57333 147.783 3.86C147.783 4.01333 147.77 4.17 147.743 4.33C147.723 4.49 147.7 4.63 147.673 4.75L146.963 8H146.023L146.743 4.63C146.777 4.47667 146.8 4.35 146.813 4.25C146.833 4.14333 146.843 4.04333 146.843 3.95C146.843 3.73667 146.787 3.57667 146.673 3.47C146.56 3.36333 146.39 3.31 146.163 3.31C145.943 3.31 145.703 3.38667 145.443 3.54C145.19 3.69333 144.95 3.94333 144.723 4.29C144.503 4.63667 144.33 5.10333 144.203 5.69L143.703 8H142.763ZM148.094 10.4L149.734 2.64H150.454L150.334 3.64H150.374C150.534 3.44 150.704 3.26 150.884 3.1C151.064 2.93333 151.261 2.8 151.474 2.7C151.688 2.6 151.918 2.55 152.164 2.55C152.451 2.55 152.701 2.62 152.914 2.76C153.134 2.89333 153.304 3.09667 153.424 3.37C153.551 3.63667 153.614 3.97333 153.614 4.38C153.614 4.77333 153.574 5.15333 153.494 5.52C153.421 5.88667 153.308 6.22667 153.154 6.54C153.008 6.84667 152.828 7.12 152.614 7.36C152.408 7.59333 152.168 7.77667 151.894 7.91C151.621 8.03667 151.324 8.1 151.004 8.1C150.764 8.1 150.554 8.05667 150.374 7.97C150.201 7.88333 150.054 7.77 149.934 7.63C149.814 7.49 149.714 7.34 149.634 7.18H149.584C149.578 7.28667 149.561 7.43667 149.534 7.63C149.508 7.81667 149.481 7.97 149.454 8.09L148.964 10.4H148.094ZM150.934 7.37C151.148 7.37 151.344 7.31667 151.524 7.21C151.711 7.09667 151.878 6.94333 152.024 6.75C152.171 6.55 152.294 6.32333 152.394 6.07C152.501 5.81 152.581 5.53667 152.634 5.25C152.688 4.95667 152.714 4.66 152.714 4.36C152.714 4 152.641 3.73 152.494 3.55C152.354 3.37 152.144 3.28 151.864 3.28C151.718 3.28 151.568 3.31667 151.414 3.39C151.261 3.46333 151.111 3.57 150.964 3.71C150.818 3.84333 150.681 4.00333 150.554 4.19C150.428 4.37667 150.314 4.58333 150.214 4.81C150.121 5.03 150.048 5.26667 149.994 5.52C149.941 5.76667 149.914 6.02333 149.914 6.29C149.914 6.61 149.998 6.87 150.164 7.07C150.331 7.27 150.588 7.37 150.934 7.37ZM155.995 8.1C155.729 8.1 155.492 8.05 155.285 7.95C155.085 7.85 154.929 7.7 154.815 7.5C154.709 7.3 154.655 7.05667 154.655 6.77C154.655 6.61667 154.665 6.47333 154.685 6.34C154.712 6.2 154.739 6.05667 154.765 5.91L155.465 2.64H156.355L155.635 6.01C155.609 6.15667 155.585 6.28333 155.565 6.39C155.552 6.49667 155.545 6.59333 155.545 6.68C155.545 6.89333 155.599 7.06333 155.705 7.19C155.819 7.31 155.999 7.37 156.245 7.37C156.472 7.37 156.715 7.29 156.975 7.13C157.242 6.97 157.489 6.71333 157.715 6.36C157.942 6.00667 158.119 5.53667 158.245 4.95L158.735 2.64H159.605L158.465 8H157.745L157.855 7.01H157.805C157.679 7.17 157.529 7.33667 157.355 7.51C157.189 7.67667 156.992 7.81667 156.765 7.93C156.545 8.04333 156.289 8.1 155.995 8.1ZM67.89 23.1C67.6233 23.1 67.3867 23.05 67.18 22.95C66.98 22.85 66.8233 22.7 66.71 22.5C66.6033 22.3 66.55 22.0567 66.55 21.77C66.55 21.6167 66.56 21.4733 66.58 21.34C66.6067 21.2 66.6333 21.0567 66.66 20.91L67.36 17.64H68.25L67.53 21.01C67.5033 21.1567 67.48 21.2833 67.46 21.39C67.4467 21.4967 67.44 21.5933 67.44 21.68C67.44 21.8933 67.4933 22.0633 67.6 22.19C67.7133 22.31 67.8933 22.37 68.14 22.37C68.3667 22.37 68.61 22.29 68.87 22.13C69.1367 21.97 69.3833 21.7133 69.61 21.36C69.8367 21.0067 70.0133 20.5367 70.14 19.95L70.63 17.64H71.5L70.36 23H69.64L69.75 22.01H69.7C69.5733 22.17 69.4233 22.3367 69.25 22.51C69.0833 22.6767 68.8867 22.8167 68.66 22.93C68.44 23.0433 68.1833 23.1 67.89 23.1ZM72.071 23L73.211 17.64H74.081L73.621 19.87H76.141L76.621 17.64H77.501L76.371 23H75.481L75.981 20.6H73.461L72.951 23H72.071ZM80.1669 23.09C79.7602 23.0367 79.4169 22.9133 79.1369 22.72C78.8569 22.5267 78.6435 22.27 78.4969 21.95C78.3502 21.6233 78.2769 21.2433 78.2769 20.81C78.2769 20.4767 78.3169 20.1533 78.3969 19.84C78.4835 19.52 78.6102 19.2267 78.7769 18.96C78.9435 18.6933 79.1469 18.4567 79.3869 18.25C79.6335 18.0433 79.9202 17.88 80.2469 17.76C80.5735 17.64 80.9369 17.5733 81.3369 17.56L81.7969 15.4H82.6069L82.1469 17.56C82.7402 17.64 83.2069 17.8667 83.5469 18.24C83.8869 18.6133 84.0569 19.1333 84.0569 19.8C84.0569 20.16 84.0102 20.5033 83.9169 20.83C83.8302 21.15 83.6969 21.4467 83.5169 21.72C83.3435 21.9933 83.1302 22.2333 82.8769 22.44C82.6302 22.64 82.3469 22.7967 82.0269 22.91C81.7069 23.0167 81.3569 23.0733 80.9769 23.08L80.4869 25.4H79.6769L80.1669 23.09ZM81.1869 18.29C80.8402 18.31 80.5369 18.3933 80.2769 18.54C80.0235 18.6867 79.8169 18.88 79.6569 19.12C79.4969 19.3533 79.3769 19.6167 79.2969 19.91C79.2169 20.1967 79.1769 20.49 79.1769 20.79C79.1769 21.1033 79.2235 21.3733 79.3169 21.6C79.4169 21.8267 79.5535 22.0033 79.7269 22.13C79.9002 22.2567 80.1002 22.33 80.3269 22.35L81.1869 18.29ZM81.1369 22.35C81.4235 22.3367 81.6769 22.28 81.8969 22.18C82.1235 22.0733 82.3169 21.9367 82.4769 21.77C82.6369 21.5967 82.7669 21.4067 82.8669 21.2C82.9669 20.9867 83.0402 20.7633 83.0869 20.53C83.1335 20.2967 83.1569 20.0667 83.1569 19.84C83.1569 19.5133 83.1069 19.2433 83.0069 19.03C82.9135 18.81 82.7802 18.64 82.6069 18.52C82.4335 18.4 82.2335 18.33 82.0069 18.31L81.1369 22.35ZM86.9956 23.08C86.5823 23.08 86.2256 22.9967 85.9256 22.83C85.6256 22.6633 85.3956 22.4267 85.2356 22.12C85.0756 21.8067 84.9956 21.44 84.9956 21.02C84.9956 20.6933 85.0323 20.3667 85.1056 20.04C85.179 19.7067 85.2856 19.3933 85.4256 19.1C85.5723 18.8067 85.7523 18.5467 85.9656 18.32C86.179 18.0867 86.429 17.9033 86.7156 17.77C87.0023 17.6367 87.3223 17.57 87.6756 17.57C88.0956 17.57 88.4523 17.6533 88.7456 17.82C89.0456 17.9867 89.2756 18.2267 89.4356 18.54C89.5956 18.8467 89.6756 19.2133 89.6756 19.64C89.6756 19.9667 89.639 20.2933 89.5656 20.62C89.4923 20.9467 89.3823 21.26 89.2356 21.56C89.0956 21.8533 88.919 22.1133 88.7056 22.34C88.4923 22.5667 88.2423 22.7467 87.9556 22.88C87.669 23.0133 87.349 23.08 86.9956 23.08ZM87.0456 22.35C87.239 22.35 87.419 22.31 87.5856 22.23C87.759 22.15 87.919 22.0333 88.0656 21.88C88.2123 21.72 88.3356 21.5267 88.4356 21.3C88.5423 21.0667 88.6256 20.8033 88.6856 20.51C88.7456 20.2167 88.7756 19.8933 88.7756 19.54C88.7756 19.34 88.739 19.1467 88.6656 18.96C88.599 18.7667 88.4856 18.61 88.3256 18.49C88.1656 18.3633 87.9523 18.3 87.6856 18.3C87.4656 18.3 87.2623 18.3467 87.0756 18.44C86.889 18.5333 86.7223 18.6667 86.5756 18.84C86.429 19.0067 86.3023 19.2067 86.1956 19.44C86.0956 19.6667 86.019 19.9167 85.9656 20.19C85.9123 20.4633 85.8856 20.75 85.8856 21.05C85.8856 21.4633 85.9856 21.7833 86.1856 22.01C86.3923 22.2367 86.679 22.35 87.0456 22.35ZM89.9304 25.4L91.5704 17.64H92.2904L92.1704 18.64H92.2104C92.3704 18.44 92.5404 18.26 92.7204 18.1C92.9004 17.9333 93.0971 17.8 93.3104 17.7C93.5237 17.6 93.7537 17.55 94.0004 17.55C94.2871 17.55 94.5371 17.62 94.7504 17.76C94.9704 17.8933 95.1404 18.0967 95.2604 18.37C95.3871 18.6367 95.4504 18.9733 95.4504 19.38C95.4504 19.7733 95.4104 20.1533 95.3304 20.52C95.2571 20.8867 95.1437 21.2267 94.9904 21.54C94.8437 21.8467 94.6637 22.12 94.4504 22.36C94.2437 22.5933 94.0037 22.7767 93.7304 22.91C93.4571 23.0367 93.1604 23.1 92.8404 23.1C92.6004 23.1 92.3904 23.0567 92.2104 22.97C92.0371 22.8833 91.8904 22.77 91.7704 22.63C91.6504 22.49 91.5504 22.34 91.4704 22.18H91.4204C91.4137 22.2867 91.3971 22.4367 91.3704 22.63C91.3437 22.8167 91.3171 22.97 91.2904 23.09L90.8004 25.4H89.9304ZM92.7704 22.37C92.9837 22.37 93.1804 22.3167 93.3604 22.21C93.5471 22.0967 93.7137 21.9433 93.8604 21.75C94.0071 21.55 94.1304 21.3233 94.2304 21.07C94.3371 20.81 94.4171 20.5367 94.4704 20.25C94.5237 19.9567 94.5504 19.66 94.5504 19.36C94.5504 19 94.4771 18.73 94.3304 18.55C94.1904 18.37 93.9804 18.28 93.7004 18.28C93.5537 18.28 93.4037 18.3167 93.2504 18.39C93.0971 18.4633 92.9471 18.57 92.8004 18.71C92.6537 18.8433 92.5171 19.0033 92.3904 19.19C92.2637 19.3767 92.1504 19.5833 92.0504 19.81C91.9571 20.03 91.8837 20.2667 91.8304 20.52C91.7771 20.7667 91.7504 21.0233 91.7504 21.29C91.7504 21.61 91.8337 21.87 92.0004 22.07C92.1671 22.27 92.4237 22.37 92.7704 22.37ZM96.2314 23L97.3614 17.65H98.5014L99.0614 21.9H99.0814L101.431 17.65H102.661L101.541 23H100.741L101.391 19.93C101.451 19.6767 101.511 19.4233 101.571 19.17C101.638 18.9167 101.698 18.6833 101.751 18.47H101.731L99.2114 23H98.5214L97.9114 18.48H97.8814C97.8547 18.6667 97.8181 18.8967 97.7714 19.17C97.7247 19.4367 97.6747 19.6967 97.6214 19.95L97.0014 23H96.2314ZM104.864 23.1C104.577 23.1 104.324 23.0333 104.104 22.9C103.89 22.76 103.72 22.5533 103.594 22.28C103.474 22.0067 103.414 21.67 103.414 21.27C103.414 20.87 103.454 20.4867 103.534 20.12C103.62 19.7467 103.74 19.4033 103.894 19.09C104.047 18.7767 104.23 18.5067 104.444 18.28C104.664 18.0467 104.907 17.8667 105.174 17.74C105.447 17.6067 105.737 17.54 106.044 17.54C106.277 17.54 106.48 17.5833 106.654 17.67C106.834 17.7567 106.984 17.87 107.104 18.01C107.224 18.15 107.32 18.3033 107.394 18.47H107.444L107.764 17.64H108.434L107.294 23H106.594L106.724 22.01H106.684C106.53 22.2033 106.36 22.3833 106.174 22.55C105.987 22.7167 105.784 22.85 105.564 22.95C105.35 23.05 105.117 23.1 104.864 23.1ZM105.154 22.37C105.4 22.37 105.64 22.28 105.874 22.1C106.114 21.92 106.33 21.6767 106.524 21.37C106.717 21.0633 106.864 20.72 106.964 20.34C107.017 20.1467 107.05 19.97 107.064 19.81C107.084 19.6433 107.094 19.49 107.094 19.35C107.094 19.0367 107.007 18.78 106.834 18.58C106.66 18.38 106.427 18.28 106.134 18.28C105.927 18.28 105.73 18.3333 105.544 18.44C105.364 18.5467 105.197 18.6967 105.044 18.89C104.89 19.0767 104.76 19.2967 104.654 19.55C104.547 19.8033 104.464 20.08 104.404 20.38C104.344 20.6733 104.314 20.9767 104.314 21.29C104.314 21.65 104.387 21.92 104.534 22.1C104.68 22.28 104.887 22.37 105.154 22.37ZM112.947 23.07C112.814 23.03 112.704 22.97 112.617 22.89C112.531 22.81 112.467 22.7 112.427 22.56C112.387 22.4133 112.367 22.2367 112.367 22.03H112.327C112.201 22.2033 112.051 22.3733 111.877 22.54C111.711 22.7067 111.514 22.8433 111.287 22.95C111.061 23.05 110.804 23.1 110.517 23.1C110.244 23.1 110.004 23.05 109.797 22.95C109.597 22.85 109.441 22.7 109.327 22.5C109.221 22.3 109.167 22.0567 109.167 21.77C109.167 21.6167 109.177 21.4733 109.197 21.34C109.224 21.2 109.251 21.0567 109.277 20.91L109.977 17.64H110.867L110.147 21.01C110.121 21.1567 110.097 21.2833 110.077 21.39C110.064 21.4967 110.057 21.5933 110.057 21.68C110.057 21.8933 110.111 22.0633 110.217 22.19C110.331 22.31 110.511 22.37 110.757 22.37C110.984 22.37 111.227 22.29 111.487 22.13C111.754 21.97 112.001 21.7133 112.227 21.36C112.454 21.0067 112.631 20.5367 112.757 19.95L113.247 17.64H114.117L113.317 21.42C113.291 21.5467 113.271 21.6567 113.257 21.75C113.244 21.8433 113.237 21.93 113.237 22.01C113.237 22.1233 113.267 22.2167 113.327 22.29C113.394 22.3567 113.491 22.39 113.617 22.39C113.671 22.39 113.731 22.3833 113.797 22.37C113.864 22.3567 113.931 22.34 113.997 22.32L113.437 24.86H112.547L112.947 23.07ZM116.474 23.1C116.207 23.1 115.971 23.05 115.764 22.95C115.564 22.85 115.407 22.7 115.294 22.5C115.187 22.3 115.134 22.0567 115.134 21.77C115.134 21.6167 115.144 21.4733 115.164 21.34C115.191 21.2 115.217 21.0567 115.244 20.91L115.944 17.64H116.834L116.114 21.01C116.087 21.1567 116.064 21.2833 116.044 21.39C116.031 21.4967 116.024 21.5933 116.024 21.68C116.024 21.8933 116.077 22.0633 116.184 22.19C116.297 22.31 116.477 22.37 116.724 22.37C116.951 22.37 117.194 22.29 117.454 22.13C117.721 21.97 117.967 21.7133 118.194 21.36C118.421 21.0067 118.597 20.5367 118.724 19.95L119.214 17.64H120.084L118.944 23H118.224L118.334 22.01H118.284C118.157 22.17 118.007 22.3367 117.834 22.51C117.667 22.6767 117.471 22.8167 117.244 22.93C117.024 23.0433 116.767 23.1 116.474 23.1ZM122.855 23.08C122.442 23.08 122.085 22.9967 121.785 22.83C121.485 22.6633 121.255 22.4267 121.095 22.12C120.935 21.8067 120.855 21.44 120.855 21.02C120.855 20.6933 120.892 20.3667 120.965 20.04C121.038 19.7067 121.145 19.3933 121.285 19.1C121.432 18.8067 121.612 18.5467 121.825 18.32C122.038 18.0867 122.288 17.9033 122.575 17.77C122.862 17.6367 123.182 17.57 123.535 17.57C123.955 17.57 124.312 17.6533 124.605 17.82C124.905 17.9867 125.135 18.2267 125.295 18.54C125.455 18.8467 125.535 19.2133 125.535 19.64C125.535 19.9667 125.498 20.2933 125.425 20.62C125.352 20.9467 125.242 21.26 125.095 21.56C124.955 21.8533 124.778 22.1133 124.565 22.34C124.352 22.5667 124.102 22.7467 123.815 22.88C123.528 23.0133 123.208 23.08 122.855 23.08ZM122.905 22.35C123.098 22.35 123.278 22.31 123.445 22.23C123.618 22.15 123.778 22.0333 123.925 21.88C124.072 21.72 124.195 21.5267 124.295 21.3C124.402 21.0667 124.485 20.8033 124.545 20.51C124.605 20.2167 124.635 19.8933 124.635 19.54C124.635 19.34 124.598 19.1467 124.525 18.96C124.458 18.7667 124.345 18.61 124.185 18.49C124.025 18.3633 123.812 18.3 123.545 18.3C123.325 18.3 123.122 18.3467 122.935 18.44C122.748 18.5333 122.582 18.6667 122.435 18.84C122.288 19.0067 122.162 19.2067 122.055 19.44C121.955 19.6667 121.878 19.9167 121.825 20.19C121.772 20.4633 121.745 20.75 121.745 21.05C121.745 21.4633 121.845 21.7833 122.045 22.01C122.252 22.2367 122.538 22.35 122.905 22.35ZM126.29 23L127.43 17.64H128.3L127.84 19.87H130.36L130.84 17.64H131.72L130.59 23H129.7L130.2 20.6H127.68L127.17 23H126.29ZM132.296 23L133.436 17.64H134.306L133.846 19.87H136.366L136.846 17.64H137.726L136.596 23H135.706L136.206 20.6H133.686L133.176 23H132.296ZM140.501 23.08C140.088 23.08 139.731 22.9967 139.431 22.83C139.131 22.6633 138.901 22.4267 138.741 22.12C138.581 21.8067 138.501 21.44 138.501 21.02C138.501 20.6933 138.538 20.3667 138.611 20.04C138.685 19.7067 138.791 19.3933 138.931 19.1C139.078 18.8067 139.258 18.5467 139.471 18.32C139.685 18.0867 139.935 17.9033 140.221 17.77C140.508 17.6367 140.828 17.57 141.181 17.57C141.601 17.57 141.958 17.6533 142.251 17.82C142.551 17.9867 142.781 18.2267 142.941 18.54C143.101 18.8467 143.181 19.2133 143.181 19.64C143.181 19.9667 143.145 20.2933 143.071 20.62C142.998 20.9467 142.888 21.26 142.741 21.56C142.601 21.8533 142.425 22.1133 142.211 22.34C141.998 22.5667 141.748 22.7467 141.461 22.88C141.175 23.0133 140.855 23.08 140.501 23.08ZM140.551 22.35C140.745 22.35 140.925 22.31 141.091 22.23C141.265 22.15 141.425 22.0333 141.571 21.88C141.718 21.72 141.841 21.5267 141.941 21.3C142.048 21.0667 142.131 20.8033 142.191 20.51C142.251 20.2167 142.281 19.8933 142.281 19.54C142.281 19.34 142.245 19.1467 142.171 18.96C142.105 18.7667 141.991 18.61 141.831 18.49C141.671 18.3633 141.458 18.3 141.191 18.3C140.971 18.3 140.768 18.3467 140.581 18.44C140.395 18.5333 140.228 18.6667 140.081 18.84C139.935 19.0067 139.808 19.2067 139.701 19.44C139.601 19.6667 139.525 19.9167 139.471 20.19C139.418 20.4633 139.391 20.75 139.391 21.05C139.391 21.4633 139.491 21.7833 139.691 22.01C139.898 22.2367 140.185 22.35 140.551 22.35ZM66.28 38L67.41 32.64H68.28L67.73 35.22L70.23 32.64H71.33L68.68 35.29L70.47 38H69.42L67.72 35.33L67.16 38H66.28ZM73.148 38.08C72.7346 38.08 72.378 37.9967 72.078 37.83C71.778 37.6633 71.548 37.4267 71.388 37.12C71.228 36.8067 71.148 36.44 71.148 36.02C71.148 35.6933 71.1846 35.3667 71.258 35.04C71.3313 34.7067 71.438 34.3933 71.578 34.1C71.7246 33.8067 71.9046 33.5467 72.118 33.32C72.3313 33.0867 72.5813 32.9033 72.868 32.77C73.1546 32.6367 73.4746 32.57 73.828 32.57C74.248 32.57 74.6046 32.6533 74.898 32.82C75.198 32.9867 75.428 33.2267 75.588 33.54C75.748 33.8467 75.828 34.2133 75.828 34.64C75.828 34.9667 75.7913 35.2933 75.718 35.62C75.6446 35.9467 75.5346 36.26 75.388 36.56C75.248 36.8533 75.0713 37.1133 74.858 37.34C74.6446 37.5667 74.3946 37.7467 74.108 37.88C73.8213 38.0133 73.5013 38.08 73.148 38.08ZM73.198 37.35C73.3913 37.35 73.5713 37.31 73.738 37.23C73.9113 37.15 74.0713 37.0333 74.218 36.88C74.3646 36.72 74.488 36.5267 74.588 36.3C74.6946 36.0667 74.778 35.8033 74.838 35.51C74.898 35.2167 74.928 34.8933 74.928 34.54C74.928 34.34 74.8913 34.1467 74.818 33.96C74.7513 33.7667 74.638 33.61 74.478 33.49C74.318 33.3633 74.1046 33.3 73.838 33.3C73.618 33.3 73.4146 33.3467 73.228 33.44C73.0413 33.5333 72.8746 33.6667 72.728 33.84C72.5813 34.0067 72.4546 34.2067 72.348 34.44C72.248 34.6667 72.1713 34.9167 72.118 35.19C72.0646 35.4633 72.038 35.75 72.038 36.05C72.038 36.4633 72.138 36.7833 72.338 37.01C72.5446 37.2367 72.8313 37.35 73.198 37.35ZM76.5827 38L77.7227 32.64H78.5927L78.1327 34.87H80.6527L81.1327 32.64H82.0127L80.8827 38H79.9927L80.4927 35.6H77.9727L77.4627 38H76.5827ZM84.7786 38.1C84.3853 38.1 84.0386 38.0267 83.7386 37.88C83.4386 37.7333 83.2053 37.5133 83.0386 37.22C82.8719 36.92 82.7886 36.5467 82.7886 36.1C82.7886 35.7133 82.8286 35.3467 82.9086 35C82.9953 34.6467 83.1186 34.32 83.2786 34.02C83.4386 33.72 83.6319 33.46 83.8586 33.24C84.0853 33.02 84.3419 32.85 84.6286 32.73C84.9219 32.6033 85.2419 32.54 85.5886 32.54C85.8219 32.54 86.0553 32.5633 86.2886 32.61C86.5219 32.6567 86.7319 32.72 86.9186 32.8L86.6686 33.53C86.5353 33.47 86.3753 33.4133 86.1886 33.36C86.0086 33.3067 85.8119 33.28 85.5986 33.28C85.3719 33.28 85.1586 33.33 84.9586 33.43C84.7653 33.5233 84.5886 33.6567 84.4286 33.83C84.2753 34.0033 84.1419 34.21 84.0286 34.45C83.9219 34.6833 83.8386 34.94 83.7786 35.22C83.7186 35.4933 83.6886 35.7833 83.6886 36.09C83.6886 36.3567 83.7353 36.5867 83.8286 36.78C83.9219 36.9733 84.0553 37.12 84.2286 37.22C84.4086 37.32 84.6219 37.37 84.8686 37.37C85.1019 37.37 85.3219 37.3367 85.5286 37.27C85.7419 37.2033 85.9519 37.1267 86.1586 37.04V37.78C85.9719 37.8733 85.7619 37.95 85.5286 38.01C85.3019 38.07 85.0519 38.1 84.7786 38.1ZM86.5898 40.4C86.4298 40.4 86.2998 40.39 86.1998 40.37C86.0932 40.35 85.9932 40.3267 85.8998 40.3V39.59C85.9932 39.6167 86.0932 39.6367 86.1998 39.65C86.3065 39.67 86.4198 39.68 86.5398 39.68C86.8132 39.68 87.0432 39.5967 87.2298 39.43C87.4232 39.2633 87.6065 39.02 87.7798 38.7L88.1298 38.08L87.3198 32.64H88.1998L88.5498 35.29C88.5832 35.5033 88.6065 35.74 88.6198 36C88.6398 36.2533 88.6532 36.4967 88.6598 36.73C88.6732 36.9567 88.6798 37.14 88.6798 37.28H88.7098C88.7565 37.1733 88.8232 37.0133 88.9098 36.8C89.0032 36.5867 89.1032 36.3667 89.2098 36.14C89.3165 35.9133 89.4098 35.7267 89.4898 35.58L91.0498 32.64H91.9898L88.5898 38.9C88.4098 39.2333 88.2265 39.51 88.0398 39.73C87.8532 39.9567 87.6432 40.1233 87.4098 40.23C87.1765 40.3433 86.9032 40.4 86.5898 40.4ZM91.2825 38.07C91.1958 38.07 91.1158 38.06 91.0425 38.04C90.9692 38.0267 90.9125 38.0133 90.8725 38V37.24C90.9192 37.26 90.9692 37.2767 91.0225 37.29C91.0758 37.2967 91.1358 37.3 91.2025 37.3C91.3625 37.3 91.5025 37.2633 91.6225 37.19C91.7492 37.11 91.8658 36.9867 91.9725 36.82C92.0792 36.6533 92.1858 36.4367 92.2925 36.17C92.4058 35.9033 92.5258 35.5833 92.6525 35.21C92.8058 34.7633 92.9525 34.3767 93.0925 34.05C93.2325 33.7233 93.3892 33.4533 93.5625 33.24C93.7425 33.02 93.9625 32.8567 94.2225 32.75C94.4825 32.6433 94.8058 32.59 95.1925 32.59C95.4192 32.59 95.6392 32.6067 95.8525 32.64C96.0658 32.6667 96.2592 32.7067 96.4325 32.76L95.3125 38H94.4225L95.4325 33.37C95.3858 33.3567 95.3292 33.3467 95.2625 33.34C95.1958 33.3333 95.1258 33.33 95.0525 33.33C94.7792 33.33 94.5558 33.3967 94.3825 33.53C94.2158 33.6567 94.0625 33.8767 93.9225 34.19C93.7825 34.5033 93.6158 34.9433 93.4225 35.51C93.2758 35.9233 93.1358 36.29 93.0025 36.61C92.8692 36.9233 92.7258 37.19 92.5725 37.41C92.4192 37.6233 92.2392 37.7867 92.0325 37.9C91.8258 38.0133 91.5758 38.07 91.2825 38.07ZM99.162 38.1C98.7886 38.1 98.4653 38.0467 98.192 37.94C97.9253 37.8267 97.722 37.6567 97.582 37.43C97.442 37.1967 97.372 36.9033 97.372 36.55C97.372 36.4167 97.382 36.2667 97.402 36.1C97.4286 35.9267 97.4553 35.7667 97.482 35.62L98.112 32.64H99.002L98.492 34.97C98.6653 34.9367 98.852 34.91 99.052 34.89C99.252 34.8633 99.4586 34.85 99.672 34.85C100.079 34.85 100.405 34.91 100.652 35.03C100.899 35.15 101.079 35.3167 101.192 35.53C101.305 35.7433 101.362 35.99 101.362 36.27C101.362 36.5967 101.279 36.9 101.112 37.18C100.952 37.4533 100.709 37.6767 100.382 37.85C100.062 38.0167 99.6553 38.1 99.162 38.1ZM99.242 37.38C99.462 37.38 99.6486 37.3533 99.802 37.3C99.962 37.24 100.092 37.1633 100.192 37.07C100.299 36.9767 100.375 36.8667 100.422 36.74C100.469 36.6133 100.492 36.48 100.492 36.34C100.492 36.18 100.459 36.0433 100.392 35.93C100.325 35.81 100.215 35.72 100.062 35.66C99.9153 35.6 99.7153 35.57 99.462 35.57C99.2553 35.57 99.0586 35.58 98.872 35.6C98.6853 35.6133 98.512 35.6367 98.352 35.67C98.312 35.8567 98.282 36.0167 98.262 36.15C98.2486 36.2767 98.242 36.3867 98.242 36.48C98.242 36.7333 98.312 36.9467 98.452 37.12C98.592 37.2933 98.8553 37.38 99.242 37.38ZM102.266 38L103.406 32.64H104.126L104.016 33.63H104.066C104.186 33.4633 104.326 33.2967 104.486 33.13C104.653 32.9633 104.843 32.8233 105.056 32.71C105.276 32.5967 105.523 32.54 105.796 32.54C106.163 32.54 106.443 32.6467 106.636 32.86C106.836 33.0667 106.956 33.3567 106.996 33.73H107.036C107.17 33.53 107.326 33.34 107.506 33.16C107.693 32.98 107.9 32.8333 108.126 32.72C108.353 32.6 108.603 32.54 108.876 32.54C109.29 32.54 109.61 32.6533 109.836 32.88C110.063 33.1067 110.176 33.4333 110.176 33.86C110.176 34.02 110.166 34.17 110.146 34.31C110.126 34.4433 110.1 34.5867 110.066 34.74L109.376 38H108.486L109.206 34.64C109.24 34.4867 109.263 34.3567 109.276 34.25C109.29 34.1433 109.296 34.04 109.296 33.94C109.296 33.74 109.24 33.58 109.126 33.46C109.02 33.34 108.85 33.28 108.616 33.28C108.456 33.28 108.286 33.3267 108.106 33.42C107.926 33.5067 107.75 33.6433 107.576 33.83C107.403 34.0167 107.246 34.2567 107.106 34.55C106.966 34.8367 106.853 35.18 106.766 35.58L106.256 38H105.376L106.086 34.64C106.12 34.4867 106.143 34.36 106.156 34.26C106.17 34.1533 106.176 34.06 106.176 33.98C106.176 33.76 106.126 33.59 106.026 33.47C105.926 33.3433 105.76 33.28 105.526 33.28C105.366 33.28 105.193 33.3233 105.006 33.41C104.826 33.4967 104.65 33.6367 104.476 33.83C104.303 34.0167 104.143 34.2633 103.996 34.57C103.85 34.8767 103.73 35.25 103.636 35.69L103.146 38H102.266ZM112.666 38.1C112.38 38.1 112.126 38.0333 111.906 37.9C111.693 37.76 111.523 37.5533 111.396 37.28C111.276 37.0067 111.216 36.67 111.216 36.27C111.216 35.87 111.256 35.4867 111.336 35.12C111.423 34.7467 111.543 34.4033 111.696 34.09C111.85 33.7767 112.033 33.5067 112.246 33.28C112.466 33.0467 112.71 32.8667 112.976 32.74C113.25 32.6067 113.54 32.54 113.846 32.54C114.08 32.54 114.283 32.5833 114.456 32.67C114.636 32.7567 114.786 32.87 114.906 33.01C115.026 33.15 115.123 33.3033 115.196 33.47H115.246L115.566 32.64H116.236L115.096 38H114.396L114.526 37.01H114.486C114.333 37.2033 114.163 37.3833 113.976 37.55C113.79 37.7167 113.586 37.85 113.366 37.95C113.153 38.05 112.92 38.1 112.666 38.1ZM112.956 37.37C113.203 37.37 113.443 37.28 113.676 37.1C113.916 36.92 114.133 36.6767 114.326 36.37C114.52 36.0633 114.666 35.72 114.766 35.34C114.82 35.1467 114.853 34.97 114.866 34.81C114.886 34.6433 114.896 34.49 114.896 34.35C114.896 34.0367 114.81 33.78 114.636 33.58C114.463 33.38 114.23 33.28 113.936 33.28C113.73 33.28 113.533 33.3333 113.346 33.44C113.166 33.5467 113 33.6967 112.846 33.89C112.693 34.0767 112.563 34.2967 112.456 34.55C112.35 34.8033 112.266 35.08 112.206 35.38C112.146 35.6733 112.116 35.9767 112.116 36.29C112.116 36.65 112.19 36.92 112.336 37.1C112.483 37.28 112.69 37.37 112.956 37.37ZM120.75 38.07C120.617 38.03 120.507 37.97 120.42 37.89C120.333 37.81 120.27 37.7 120.23 37.56C120.19 37.4133 120.17 37.2367 120.17 37.03H120.13C120.003 37.2033 119.853 37.3733 119.68 37.54C119.513 37.7067 119.317 37.8433 119.09 37.95C118.863 38.05 118.607 38.1 118.32 38.1C118.047 38.1 117.807 38.05 117.6 37.95C117.4 37.85 117.243 37.7 117.13 37.5C117.023 37.3 116.97 37.0567 116.97 36.77C116.97 36.6167 116.98 36.4733 117 36.34C117.027 36.2 117.053 36.0567 117.08 35.91L117.78 32.64H118.67L117.95 36.01C117.923 36.1567 117.9 36.2833 117.88 36.39C117.867 36.4967 117.86 36.5933 117.86 36.68C117.86 36.8933 117.913 37.0633 118.02 37.19C118.133 37.31 118.313 37.37 118.56 37.37C118.787 37.37 119.03 37.29 119.29 37.13C119.557 36.97 119.803 36.7133 120.03 36.36C120.257 36.0067 120.433 35.5367 120.56 34.95L121.05 32.64H121.92L121.12 36.42C121.093 36.5467 121.073 36.6567 121.06 36.75C121.047 36.8433 121.04 36.93 121.04 37.01C121.04 37.1233 121.07 37.2167 121.13 37.29C121.197 37.3567 121.293 37.39 121.42 37.39C121.473 37.39 121.533 37.3833 121.6 37.37C121.667 37.3567 121.733 37.34 121.8 37.32L121.24 39.86H120.35L120.75 38.07ZM124.277 38.1C124.01 38.1 123.773 38.05 123.567 37.95C123.367 37.85 123.21 37.7 123.097 37.5C122.99 37.3 122.937 37.0567 122.937 36.77C122.937 36.6167 122.947 36.4733 122.967 36.34C122.993 36.2 123.02 36.0567 123.047 35.91L123.747 32.64H124.637L123.917 36.01C123.89 36.1567 123.867 36.2833 123.847 36.39C123.833 36.4967 123.827 36.5933 123.827 36.68C123.827 36.8933 123.88 37.0633 123.987 37.19C124.1 37.31 124.28 37.37 124.527 37.37C124.753 37.37 124.997 37.29 125.257 37.13C125.523 36.97 125.77 36.7133 125.997 36.36C126.223 36.0067 126.4 35.5367 126.527 34.95L127.017 32.64H127.887L126.747 38H126.027L126.137 37.01H126.087C125.96 37.17 125.81 37.3367 125.637 37.51C125.47 37.6767 125.273 37.8167 125.047 37.93C124.827 38.0433 124.57 38.1 124.277 38.1ZM130.658 38.08C130.244 38.08 129.888 37.9967 129.588 37.83C129.288 37.6633 129.058 37.4267 128.898 37.12C128.738 36.8067 128.658 36.44 128.658 36.02C128.658 35.6933 128.694 35.3667 128.768 35.04C128.841 34.7067 128.948 34.3933 129.088 34.1C129.234 33.8067 129.414 33.5467 129.628 33.32C129.841 33.0867 130.091 32.9033 130.378 32.77C130.664 32.6367 130.984 32.57 131.338 32.57C131.758 32.57 132.114 32.6533 132.408 32.82C132.708 32.9867 132.938 33.2267 133.098 33.54C133.258 33.8467 133.338 34.2133 133.338 34.64C133.338 34.9667 133.301 35.2933 133.228 35.62C133.154 35.9467 133.044 36.26 132.898 36.56C132.758 36.8533 132.581 37.1133 132.368 37.34C132.154 37.5667 131.904 37.7467 131.618 37.88C131.331 38.0133 131.011 38.08 130.658 38.08ZM130.708 37.35C130.901 37.35 131.081 37.31 131.248 37.23C131.421 37.15 131.581 37.0333 131.728 36.88C131.874 36.72 131.998 36.5267 132.098 36.3C132.204 36.0667 132.288 35.8033 132.348 35.51C132.408 35.2167 132.438 34.8933 132.438 34.54C132.438 34.34 132.401 34.1467 132.328 33.96C132.261 33.7667 132.148 33.61 131.988 33.49C131.828 33.3633 131.614 33.3 131.348 33.3C131.128 33.3 130.924 33.3467 130.738 33.44C130.551 33.5333 130.384 33.6667 130.238 33.84C130.091 34.0067 129.964 34.2067 129.858 34.44C129.758 34.6667 129.681 34.9167 129.628 35.19C129.574 35.4633 129.548 35.75 129.548 36.05C129.548 36.4633 129.648 36.7833 129.848 37.01C130.054 37.2367 130.341 37.35 130.708 37.35ZM134.093 38L135.233 32.64H136.103L135.643 34.87H138.163L138.643 32.64H139.523L138.393 38H137.503L138.003 35.6H135.483L134.973 38H134.093ZM140.098 38L141.238 32.64H142.108L141.648 34.87H144.168L144.648 32.64H145.528L144.398 38H143.508L144.008 35.6H141.488L140.978 38H140.098ZM148.304 38.08C147.891 38.08 147.534 37.9967 147.234 37.83C146.934 37.6633 146.704 37.4267 146.544 37.12C146.384 36.8067 146.304 36.44 146.304 36.02C146.304 35.6933 146.341 35.3667 146.414 35.04C146.488 34.7067 146.594 34.3933 146.734 34.1C146.881 33.8067 147.061 33.5467 147.274 33.32C147.488 33.0867 147.738 32.9033 148.024 32.77C148.311 32.6367 148.631 32.57 148.984 32.57C149.404 32.57 149.761 32.6533 150.054 32.82C150.354 32.9867 150.584 33.2267 150.744 33.54C150.904 33.8467 150.984 34.2133 150.984 34.64C150.984 34.9667 150.948 35.2933 150.874 35.62C150.801 35.9467 150.691 36.26 150.544 36.56C150.404 36.8533 150.228 37.1133 150.014 37.34C149.801 37.5667 149.551 37.7467 149.264 37.88C148.978 38.0133 148.658 38.08 148.304 38.08ZM148.354 37.35C148.548 37.35 148.728 37.31 148.894 37.23C149.068 37.15 149.228 37.0333 149.374 36.88C149.521 36.72 149.644 36.5267 149.744 36.3C149.851 36.0667 149.934 35.8033 149.994 35.51C150.054 35.2167 150.084 34.8933 150.084 34.54C150.084 34.34 150.048 34.1467 149.974 33.96C149.908 33.7667 149.794 33.61 149.634 33.49C149.474 33.3633 149.261 33.3 148.994 33.3C148.774 33.3 148.571 33.3467 148.384 33.44C148.198 33.5333 148.031 33.6667 147.884 33.84C147.738 34.0067 147.611 34.2067 147.504 34.44C147.404 34.6667 147.328 34.9167 147.274 35.19C147.221 35.4633 147.194 35.75 147.194 36.05C147.194 36.4633 147.294 36.7833 147.494 37.01C147.701 37.2367 147.988 37.35 148.354 37.35ZM151.749 38L152.879 32.65H154.019L154.579 36.9H154.599L156.949 32.65H158.179L157.059 38H156.259L156.909 34.93C156.969 34.6767 157.029 34.4233 157.089 34.17C157.156 33.9167 157.216 33.6833 157.269 33.47H157.249L154.729 38H154.039L153.429 33.48H153.399C153.372 33.6667 153.336 33.8967 153.289 34.17C153.242 34.4367 153.192 34.6967 153.139 34.95L152.519 38H151.749ZM165.711 38.07C165.578 38.03 165.468 37.97 165.381 37.89C165.294 37.81 165.231 37.7 165.191 37.56C165.151 37.4133 165.131 37.2367 165.131 37.03H165.091C164.964 37.2033 164.814 37.3733 164.641 37.54C164.474 37.7067 164.278 37.8433 164.051 37.95C163.824 38.05 163.568 38.1 163.281 38.1C163.008 38.1 162.768 38.05 162.561 37.95C162.361 37.85 162.204 37.7 162.091 37.5C161.984 37.3 161.931 37.0567 161.931 36.77C161.931 36.6167 161.941 36.4733 161.961 36.34C161.988 36.2 162.014 36.0567 162.041 35.91L162.741 32.64H163.631L162.911 36.01C162.884 36.1567 162.861 36.2833 162.841 36.39C162.828 36.4967 162.821 36.5933 162.821 36.68C162.821 36.8933 162.874 37.0633 162.981 37.19C163.094 37.31 163.274 37.37 163.521 37.37C163.748 37.37 163.991 37.29 164.251 37.13C164.518 36.97 164.764 36.7133 164.991 36.36C165.218 36.0067 165.394 35.5367 165.521 34.95L166.011 32.64H166.881L166.081 36.42C166.054 36.5467 166.034 36.6567 166.021 36.75C166.008 36.8433 166.001 36.93 166.001 37.01C166.001 37.1233 166.031 37.2167 166.091 37.29C166.158 37.3567 166.254 37.39 166.381 37.39C166.434 37.39 166.494 37.3833 166.561 37.37C166.628 37.3567 166.694 37.34 166.761 37.32L166.201 39.86H165.311L165.711 38.07ZM169.768 38.1C169.354 38.1 169.001 38.02 168.708 37.86C168.421 37.6933 168.201 37.46 168.048 37.16C167.901 36.8533 167.828 36.4933 167.828 36.08C167.828 35.6533 167.888 35.2333 168.008 34.82C168.134 34.4 168.314 34.02 168.548 33.68C168.781 33.3333 169.061 33.0567 169.388 32.85C169.721 32.6433 170.094 32.54 170.508 32.54C171.014 32.54 171.394 32.65 171.648 32.87C171.908 33.09 172.038 33.3967 172.038 33.79C172.038 34.05 171.978 34.2967 171.858 34.53C171.738 34.7567 171.551 34.9567 171.298 35.13C171.044 35.3033 170.721 35.44 170.328 35.54C169.934 35.6333 169.461 35.68 168.908 35.68H168.738C168.731 35.74 168.724 35.8033 168.718 35.87C168.718 35.9367 168.718 35.9967 168.718 36.05C168.718 36.4567 168.818 36.78 169.018 37.02C169.218 37.2533 169.521 37.37 169.928 37.37C170.181 37.37 170.421 37.3333 170.648 37.26C170.874 37.1867 171.121 37.0867 171.388 36.96V37.71C171.134 37.8233 170.884 37.9167 170.638 37.99C170.398 38.0633 170.108 38.1 169.768 38.1ZM168.938 34.97C169.338 34.97 169.708 34.9367 170.048 34.87C170.388 34.7967 170.661 34.68 170.868 34.52C171.074 34.3533 171.178 34.1333 171.178 33.86C171.178 33.6867 171.118 33.5467 170.998 33.44C170.884 33.3267 170.704 33.27 170.458 33.27C170.244 33.27 170.034 33.3367 169.828 33.47C169.621 33.6033 169.434 33.7967 169.268 34.05C169.101 34.3033 168.968 34.61 168.868 34.97H168.938ZM172.618 38L173.758 32.64H174.628L174.168 34.87H176.688L177.168 32.64H178.048L176.918 38H176.028L176.528 35.6H174.008L173.498 38H172.618ZM178.624 38L179.764 32.64H180.484L180.374 33.63H180.424C180.544 33.4633 180.684 33.2967 180.844 33.13C181.01 32.9633 181.2 32.8233 181.414 32.71C181.634 32.5967 181.88 32.54 182.154 32.54C182.52 32.54 182.8 32.6467 182.994 32.86C183.194 33.0667 183.314 33.3567 183.354 33.73H183.394C183.527 33.53 183.684 33.34 183.864 33.16C184.05 32.98 184.257 32.8333 184.484 32.72C184.71 32.6 184.96 32.54 185.234 32.54C185.647 32.54 185.967 32.6533 186.194 32.88C186.42 33.1067 186.534 33.4333 186.534 33.86C186.534 34.02 186.524 34.17 186.504 34.31C186.484 34.4433 186.457 34.5867 186.424 34.74L185.734 38H184.844L185.564 34.64C185.597 34.4867 185.62 34.3567 185.634 34.25C185.647 34.1433 185.654 34.04 185.654 33.94C185.654 33.74 185.597 33.58 185.484 33.46C185.377 33.34 185.207 33.28 184.974 33.28C184.814 33.28 184.644 33.3267 184.464 33.42C184.284 33.5067 184.107 33.6433 183.934 33.83C183.76 34.0167 183.604 34.2567 183.464 34.55C183.324 34.8367 183.21 35.18 183.124 35.58L182.614 38H181.734L182.444 34.64C182.477 34.4867 182.5 34.36 182.514 34.26C182.527 34.1533 182.534 34.06 182.534 33.98C182.534 33.76 182.484 33.59 182.384 33.47C182.284 33.3433 182.117 33.28 181.884 33.28C181.724 33.28 181.55 33.3233 181.364 33.41C181.184 33.4967 181.007 33.6367 180.834 33.83C180.66 34.0167 180.5 34.2633 180.354 34.57C180.207 34.8767 180.087 35.25 179.994 35.69L179.504 38H178.624ZM186.874 40.4L188.514 32.64H189.234L189.114 33.64H189.154C189.314 33.44 189.484 33.26 189.664 33.1C189.844 32.9333 190.04 32.8 190.254 32.7C190.467 32.6 190.697 32.55 190.944 32.55C191.23 32.55 191.48 32.62 191.694 32.76C191.914 32.8933 192.084 33.0967 192.204 33.37C192.33 33.6367 192.394 33.9733 192.394 34.38C192.394 34.7733 192.354 35.1533 192.274 35.52C192.2 35.8867 192.087 36.2267 191.934 36.54C191.787 36.8467 191.607 37.12 191.394 37.36C191.187 37.5933 190.947 37.7767 190.674 37.91C190.4 38.0367 190.104 38.1 189.784 38.1C189.544 38.1 189.334 38.0567 189.154 37.97C188.98 37.8833 188.834 37.77 188.714 37.63C188.594 37.49 188.494 37.34 188.414 37.18H188.364C188.357 37.2867 188.34 37.4367 188.314 37.63C188.287 37.8167 188.26 37.97 188.234 38.09L187.744 40.4H186.874ZM189.714 37.37C189.927 37.37 190.124 37.3167 190.304 37.21C190.49 37.0967 190.657 36.9433 190.804 36.75C190.95 36.55 191.074 36.3233 191.174 36.07C191.28 35.81 191.36 35.5367 191.414 35.25C191.467 34.9567 191.494 34.66 191.494 34.36C191.494 34 191.42 33.73 191.274 33.55C191.134 33.37 190.924 33.28 190.644 33.28C190.497 33.28 190.347 33.3167 190.194 33.39C190.04 33.4633 189.89 33.57 189.744 33.71C189.597 33.8433 189.46 34.0033 189.334 34.19C189.207 34.3767 189.094 34.5833 188.994 34.81C188.9 35.03 188.827 35.2667 188.774 35.52C188.72 35.7667 188.694 36.0233 188.694 36.29C188.694 36.61 188.777 36.87 188.944 37.07C189.11 37.27 189.367 37.37 189.714 37.37ZM195.305 38.1C194.891 38.1 194.538 38.02 194.245 37.86C193.958 37.6933 193.738 37.46 193.585 37.16C193.438 36.8533 193.365 36.4933 193.365 36.08C193.365 35.6533 193.425 35.2333 193.545 34.82C193.671 34.4 193.851 34.02 194.085 33.68C194.318 33.3333 194.598 33.0567 194.925 32.85C195.258 32.6433 195.631 32.54 196.045 32.54C196.551 32.54 196.931 32.65 197.185 32.87C197.445 33.09 197.575 33.3967 197.575 33.79C197.575 34.05 197.515 34.2967 197.395 34.53C197.275 34.7567 197.088 34.9567 196.835 35.13C196.581 35.3033 196.258 35.44 195.865 35.54C195.471 35.6333 194.998 35.68 194.445 35.68H194.275C194.268 35.74 194.261 35.8033 194.255 35.87C194.255 35.9367 194.255 35.9967 194.255 36.05C194.255 36.4567 194.355 36.78 194.555 37.02C194.755 37.2533 195.058 37.37 195.465 37.37C195.718 37.37 195.958 37.3333 196.185 37.26C196.411 37.1867 196.658 37.0867 196.925 36.96V37.71C196.671 37.8233 196.421 37.9167 196.175 37.99C195.935 38.0633 195.645 38.1 195.305 38.1ZM194.475 34.97C194.875 34.97 195.245 34.9367 195.585 34.87C195.925 34.7967 196.198 34.68 196.405 34.52C196.611 34.3533 196.715 34.1333 196.715 33.86C196.715 33.6867 196.655 33.5467 196.535 33.44C196.421 33.3267 196.241 33.27 195.995 33.27C195.781 33.27 195.571 33.3367 195.365 33.47C195.158 33.6033 194.971 33.7967 194.805 34.05C194.638 34.3033 194.505 34.61 194.405 34.97H194.475ZM202.785 38.1C202.478 38.1 202.191 38.0533 201.925 37.96C201.665 37.8667 201.455 37.72 201.295 37.52C201.135 37.32 201.055 37.06 201.055 36.74C201.055 36.48 201.105 36.2533 201.205 36.06C201.311 35.8667 201.451 35.7033 201.625 35.57C201.798 35.43 201.991 35.3133 202.205 35.22C202.418 35.12 202.631 35.03 202.845 34.95C203.111 34.8433 203.348 34.7433 203.555 34.65C203.761 34.55 203.921 34.4367 204.035 34.31C204.155 34.1767 204.215 34.02 204.215 33.84C204.215 33.6733 204.161 33.54 204.055 33.44C203.948 33.3333 203.758 33.28 203.485 33.28C203.225 33.28 202.968 33.3167 202.715 33.39C202.461 33.4567 202.228 33.5367 202.015 33.63L201.775 32.93C202.008 32.8433 202.275 32.76 202.575 32.68C202.875 32.5933 203.208 32.55 203.575 32.55C203.875 32.55 204.138 32.5933 204.365 32.68C204.598 32.76 204.778 32.89 204.905 33.07C205.038 33.25 205.105 33.49 205.105 33.79C205.105 34.0233 205.058 34.23 204.965 34.41C204.871 34.5833 204.745 34.7367 204.585 34.87C204.425 34.9967 204.245 35.11 204.045 35.21C203.845 35.3033 203.638 35.39 203.425 35.47C203.125 35.5833 202.861 35.6933 202.635 35.8C202.415 35.9 202.245 36.0167 202.125 36.15C202.005 36.2833 201.945 36.4567 201.945 36.67C201.945 36.8833 202.021 37.0533 202.175 37.18C202.335 37.3067 202.581 37.37 202.915 37.37C203.095 37.37 203.271 37.3533 203.445 37.32C203.618 37.28 203.788 37.23 203.955 37.17C204.121 37.1033 204.285 37.0333 204.445 36.96V37.73C204.211 37.8367 203.961 37.9267 203.695 38C203.428 38.0667 203.125 38.1 202.785 38.1ZM207.875 38.08C207.461 38.08 207.105 37.9967 206.805 37.83C206.505 37.6633 206.275 37.4267 206.115 37.12C205.955 36.8067 205.875 36.44 205.875 36.02C205.875 35.6933 205.911 35.3667 205.985 35.04C206.058 34.7067 206.165 34.3933 206.305 34.1C206.451 33.8067 206.631 33.5467 206.845 33.32C207.058 33.0867 207.308 32.9033 207.595 32.77C207.881 32.6367 208.201 32.57 208.555 32.57C208.975 32.57 209.331 32.6533 209.625 32.82C209.925 32.9867 210.155 33.2267 210.315 33.54C210.475 33.8467 210.555 34.2133 210.555 34.64C210.555 34.9667 210.518 35.2933 210.445 35.62C210.371 35.9467 210.261 36.26 210.115 36.56C209.975 36.8533 209.798 37.1133 209.585 37.34C209.371 37.5667 209.121 37.7467 208.835 37.88C208.548 38.0133 208.228 38.08 207.875 38.08ZM207.925 37.35C208.118 37.35 208.298 37.31 208.465 37.23C208.638 37.15 208.798 37.0333 208.945 36.88C209.091 36.72 209.215 36.5267 209.315 36.3C209.421 36.0667 209.505 35.8033 209.565 35.51C209.625 35.2167 209.655 34.8933 209.655 34.54C209.655 34.34 209.618 34.1467 209.545 33.96C209.478 33.7667 209.365 33.61 209.205 33.49C209.045 33.3633 208.831 33.3 208.565 33.3C208.345 33.3 208.141 33.3467 207.955 33.44C207.768 33.5333 207.601 33.6667 207.455 33.84C207.308 34.0067 207.181 34.2067 207.075 34.44C206.975 34.6667 206.898 34.9167 206.845 35.19C206.791 35.4633 206.765 35.75 206.765 36.05C206.765 36.4633 206.865 36.7833 207.065 37.01C207.271 37.2367 207.558 37.35 207.925 37.35ZM210.809 40.4L212.449 32.64H213.169L213.049 33.64H213.089C213.249 33.44 213.419 33.26 213.599 33.1C213.779 32.9333 213.976 32.8 214.189 32.7C214.403 32.6 214.633 32.55 214.879 32.55C215.166 32.55 215.416 32.62 215.629 32.76C215.849 32.8933 216.019 33.0967 216.139 33.37C216.266 33.6367 216.329 33.9733 216.329 34.38C216.329 34.7733 216.289 35.1533 216.209 35.52C216.136 35.8867 216.023 36.2267 215.869 36.54C215.723 36.8467 215.543 37.12 215.329 37.36C215.123 37.5933 214.883 37.7767 214.609 37.91C214.336 38.0367 214.039 38.1 213.719 38.1C213.479 38.1 213.269 38.0567 213.089 37.97C212.916 37.8833 212.769 37.77 212.649 37.63C212.529 37.49 212.429 37.34 212.349 37.18H212.299C212.293 37.2867 212.276 37.4367 212.249 37.63C212.223 37.8167 212.196 37.97 212.169 38.09L211.679 40.4H210.809ZM213.649 37.37C213.863 37.37 214.059 37.3167 214.239 37.21C214.426 37.0967 214.593 36.9433 214.739 36.75C214.886 36.55 215.009 36.3233 215.109 36.07C215.216 35.81 215.296 35.5367 215.349 35.25C215.403 34.9567 215.429 34.66 215.429 34.36C215.429 34 215.356 33.73 215.209 33.55C215.069 33.37 214.859 33.28 214.579 33.28C214.433 33.28 214.283 33.3167 214.129 33.39C213.976 33.4633 213.826 33.57 213.679 33.71C213.533 33.8433 213.396 34.0033 213.269 34.19C213.143 34.3767 213.029 34.5833 212.929 34.81C212.836 35.03 212.763 35.2667 212.709 35.52C212.656 35.7667 212.629 36.0233 212.629 36.29C212.629 36.61 212.713 36.87 212.879 37.07C213.046 37.27 213.303 37.37 213.649 37.37ZM219.3 38.08C218.887 38.08 218.53 37.9967 218.23 37.83C217.93 37.6633 217.7 37.4267 217.54 37.12C217.38 36.8067 217.3 36.44 217.3 36.02C217.3 35.6933 217.337 35.3667 217.41 35.04C217.484 34.7067 217.59 34.3933 217.73 34.1C217.877 33.8067 218.057 33.5467 218.27 33.32C218.484 33.0867 218.734 32.9033 219.02 32.77C219.307 32.6367 219.627 32.57 219.98 32.57C220.4 32.57 220.757 32.6533 221.05 32.82C221.35 32.9867 221.58 33.2267 221.74 33.54C221.9 33.8467 221.98 34.2133 221.98 34.64C221.98 34.9667 221.944 35.2933 221.87 35.62C221.797 35.9467 221.687 36.26 221.54 36.56C221.4 36.8533 221.224 37.1133 221.01 37.34C220.797 37.5667 220.547 37.7467 220.26 37.88C219.974 38.0133 219.654 38.08 219.3 38.08ZM219.35 37.35C219.544 37.35 219.724 37.31 219.89 37.23C220.064 37.15 220.224 37.0333 220.37 36.88C220.517 36.72 220.64 36.5267 220.74 36.3C220.847 36.0667 220.93 35.8033 220.99 35.51C221.05 35.2167 221.08 34.8933 221.08 34.54C221.08 34.34 221.044 34.1467 220.97 33.96C220.904 33.7667 220.79 33.61 220.63 33.49C220.47 33.3633 220.257 33.3 219.99 33.3C219.77 33.3 219.567 33.3467 219.38 33.44C219.194 33.5333 219.027 33.6667 218.88 33.84C218.734 34.0067 218.607 34.2067 218.5 34.44C218.4 34.6667 218.324 34.9167 218.27 35.19C218.217 35.4633 218.19 35.75 218.19 36.05C218.19 36.4633 218.29 36.7833 218.49 37.01C218.697 37.2367 218.984 37.35 219.35 37.35ZM224.705 38.1C224.318 38.1 223.992 38.02 223.725 37.86C223.465 37.6933 223.268 37.4633 223.135 37.17C223.002 36.8767 222.935 36.5367 222.935 36.15C222.935 35.8433 222.968 35.5367 223.035 35.23C223.102 34.9167 223.202 34.62 223.335 34.34C223.475 34.0533 223.645 33.8 223.845 33.58C224.045 33.36 224.275 33.1867 224.535 33.06C224.802 32.9333 225.098 32.87 225.425 32.87C225.692 32.87 225.915 32.91 226.095 32.99C226.275 33.0633 226.422 33.1667 226.535 33.3C226.655 33.4267 226.752 33.5667 226.825 33.72H226.855C226.862 33.6667 226.865 33.6167 226.865 33.57C226.865 33.5167 226.865 33.4733 226.865 33.44C226.865 32.62 226.755 32.0133 226.535 31.62C226.315 31.2267 225.978 31.03 225.525 31.03C225.358 31.03 225.178 31.05 224.985 31.09C224.798 31.13 224.628 31.1833 224.475 31.25L224.255 30.6C224.415 30.52 224.625 30.45 224.885 30.39C225.145 30.33 225.395 30.3 225.635 30.3C226.128 30.3 226.528 30.42 226.835 30.66C227.148 30.8933 227.378 31.24 227.525 31.7C227.678 32.1533 227.755 32.7133 227.755 33.38C227.755 33.7133 227.728 34.0633 227.675 34.43C227.622 34.79 227.542 35.1467 227.435 35.5C227.328 35.8533 227.192 36.1867 227.025 36.5C226.865 36.8133 226.672 37.09 226.445 37.33C226.218 37.57 225.962 37.76 225.675 37.9C225.388 38.0333 225.065 38.1 224.705 38.1ZM224.795 37.36C224.995 37.36 225.178 37.3133 225.345 37.22C225.518 37.12 225.675 36.9867 225.815 36.82C225.962 36.6467 226.092 36.4467 226.205 36.22C226.318 35.9933 226.415 35.75 226.495 35.49C226.582 35.23 226.652 34.96 226.705 34.68C226.645 34.4667 226.558 34.2767 226.445 34.11C226.338 33.9367 226.205 33.8 226.045 33.7C225.892 33.6 225.712 33.55 225.505 33.55C225.325 33.55 225.152 33.5933 224.985 33.68C224.818 33.7667 224.665 33.89 224.525 34.05C224.385 34.21 224.262 34.3967 224.155 34.61C224.048 34.8233 223.965 35.06 223.905 35.32C223.852 35.58 223.825 35.8533 223.825 36.14C223.825 36.4867 223.898 36.7767 224.045 37.01C224.198 37.2433 224.448 37.36 224.795 37.36ZM230.049 38.1C229.762 38.1 229.509 38.0333 229.289 37.9C229.076 37.76 228.906 37.5533 228.779 37.28C228.659 37.0067 228.599 36.67 228.599 36.27C228.599 35.87 228.639 35.4867 228.719 35.12C228.806 34.7467 228.926 34.4033 229.079 34.09C229.232 33.7767 229.416 33.5067 229.629 33.28C229.849 33.0467 230.092 32.8667 230.359 32.74C230.632 32.6067 230.922 32.54 231.229 32.54C231.462 32.54 231.666 32.5833 231.839 32.67C232.019 32.7567 232.169 32.87 232.289 33.01C232.409 33.15 232.506 33.3033 232.579 33.47H232.629L232.949 32.64H233.619L232.479 38H231.779L231.909 37.01H231.869C231.716 37.2033 231.546 37.3833 231.359 37.55C231.172 37.7167 230.969 37.85 230.749 37.95C230.536 38.05 230.302 38.1 230.049 38.1ZM230.339 37.37C230.586 37.37 230.826 37.28 231.059 37.1C231.299 36.92 231.516 36.6767 231.709 36.37C231.902 36.0633 232.049 35.72 232.149 35.34C232.202 35.1467 232.236 34.97 232.249 34.81C232.269 34.6433 232.279 34.49 232.279 34.35C232.279 34.0367 232.192 33.78 232.019 33.58C231.846 33.38 231.612 33.28 231.319 33.28C231.112 33.28 230.916 33.3333 230.729 33.44C230.549 33.5467 230.382 33.6967 230.229 33.89C230.076 34.0767 229.946 34.2967 229.839 34.55C229.732 34.8033 229.649 35.08 229.589 35.38C229.529 35.6733 229.499 35.9767 229.499 36.29C229.499 36.65 229.572 36.92 229.719 37.1C229.866 37.28 230.072 37.37 230.339 37.37ZM67.52 53L68.86 46.65H66.9L67.07 45.86H71.89L71.73 46.65H69.77L68.42 53H67.52ZM72.9398 53.1C72.6531 53.1 72.3998 53.0333 72.1798 52.9C71.9664 52.76 71.7964 52.5533 71.6698 52.28C71.5498 52.0067 71.4898 51.67 71.4898 51.27C71.4898 50.87 71.5298 50.4867 71.6098 50.12C71.6964 49.7467 71.8164 49.4033 71.9698 49.09C72.1231 48.7767 72.3064 48.5067 72.5198 48.28C72.7398 48.0467 72.9831 47.8667 73.2498 47.74C73.5231 47.6067 73.8131 47.54 74.1198 47.54C74.3531 47.54 74.5564 47.5833 74.7298 47.67C74.9098 47.7567 75.0598 47.87 75.1798 48.01C75.2998 48.15 75.3964 48.3033 75.4698 48.47H75.5198L75.8398 47.64H76.5098L75.3698 53H74.6698L74.7998 52.01H74.7598C74.6064 52.2033 74.4364 52.3833 74.2498 52.55C74.0631 52.7167 73.8598 52.85 73.6398 52.95C73.4264 53.05 73.1931 53.1 72.9398 53.1ZM73.2298 52.37C73.4764 52.37 73.7164 52.28 73.9498 52.1C74.1898 51.92 74.4064 51.6767 74.5998 51.37C74.7931 51.0633 74.9398 50.72 75.0398 50.34C75.0931 50.1467 75.1264 49.97 75.1398 49.81C75.1598 49.6433 75.1698 49.49 75.1698 49.35C75.1698 49.0367 75.0831 48.78 74.9098 48.58C74.7364 48.38 74.5031 48.28 74.2098 48.28C74.0031 48.28 73.8064 48.3333 73.6198 48.44C73.4398 48.5467 73.2731 48.6967 73.1198 48.89C72.9664 49.0767 72.8364 49.2967 72.7298 49.55C72.6231 49.8033 72.5398 50.08 72.4798 50.38C72.4198 50.6733 72.3898 50.9767 72.3898 51.29C72.3898 51.65 72.4631 51.92 72.6098 52.1C72.7564 52.28 72.9631 52.37 73.2298 52.37ZM78.5434 53.1C78.13 53.1 77.81 52.9867 77.5834 52.76C77.3567 52.5333 77.2434 52.2067 77.2434 51.78C77.2434 51.62 77.2534 51.47 77.2734 51.33C77.3 51.19 77.3267 51.0467 77.3534 50.9L78.0434 47.64H78.9334L78.2234 51C78.1967 51.1467 78.1734 51.2767 78.1534 51.39C78.1334 51.4967 78.1234 51.6 78.1234 51.7C78.1234 51.9 78.1767 52.06 78.2834 52.18C78.3967 52.3 78.57 52.36 78.8034 52.36C79.0234 52.36 79.2534 52.28 79.4934 52.12C79.7334 51.96 79.9567 51.71 80.1634 51.37C80.3767 51.03 80.54 50.5933 80.6534 50.06L81.1734 47.64H82.0534L81.3334 51C81.3067 51.1467 81.2834 51.2733 81.2634 51.38C81.25 51.4867 81.2434 51.58 81.2434 51.66C81.2434 51.88 81.2934 52.0533 81.3934 52.18C81.4934 52.3 81.66 52.36 81.8934 52.36C82.06 52.36 82.2334 52.3167 82.4134 52.23C82.6 52.1433 82.78 52.0067 82.9534 51.82C83.1267 51.6267 83.2867 51.3767 83.4334 51.07C83.58 50.7633 83.6967 50.39 83.7834 49.95L84.2734 47.64H85.1534L84.0134 53H83.2934L83.4034 52.01H83.3534C83.2334 52.17 83.09 52.3367 82.9234 52.51C82.7634 52.6767 82.5767 52.8167 82.3634 52.93C82.15 53.0433 81.9067 53.1 81.6334 53.1C81.4534 53.1 81.29 53.0733 81.1434 53.02C81.0034 52.9667 80.8834 52.89 80.7834 52.79C80.6834 52.6833 80.6034 52.5567 80.5434 52.41C80.4834 52.2633 80.4434 52.0967 80.4234 51.91H80.3834C80.25 52.1033 80.0934 52.2933 79.9134 52.48C79.7334 52.66 79.5267 52.81 79.2934 52.93C79.0667 53.0433 78.8167 53.1 78.5434 53.1ZM85.7234 53L86.8534 47.64H87.7234L87.1734 50.22L89.6734 47.64H90.7734L88.1234 50.29L89.9134 53H88.8634L87.1634 50.33L86.6034 53H85.7234ZM92.5313 53.1C92.118 53.1 91.7647 53.02 91.4713 52.86C91.1847 52.6933 90.9647 52.46 90.8113 52.16C90.6647 51.8533 90.5913 51.4933 90.5913 51.08C90.5913 50.6533 90.6513 50.2333 90.7713 49.82C90.898 49.4 91.078 49.02 91.3113 48.68C91.5447 48.3333 91.8247 48.0567 92.1513 47.85C92.4847 47.6433 92.858 47.54 93.2713 47.54C93.778 47.54 94.158 47.65 94.4113 47.87C94.6713 48.09 94.8013 48.3967 94.8013 48.79C94.8013 49.05 94.7413 49.2967 94.6213 49.53C94.5013 49.7567 94.3147 49.9567 94.0613 50.13C93.808 50.3033 93.4847 50.44 93.0913 50.54C92.698 50.6333 92.2247 50.68 91.6713 50.68H91.5013C91.4947 50.74 91.488 50.8033 91.4813 50.87C91.4813 50.9367 91.4813 50.9967 91.4813 51.05C91.4813 51.4567 91.5813 51.78 91.7813 52.02C91.9813 52.2533 92.2847 52.37 92.6913 52.37C92.9447 52.37 93.1847 52.3333 93.4113 52.26C93.638 52.1867 93.8847 52.0867 94.1513 51.96V52.71C93.898 52.8233 93.648 52.9167 93.4013 52.99C93.1613 53.0633 92.8713 53.1 92.5313 53.1ZM91.7013 49.97C92.1013 49.97 92.4713 49.9367 92.8113 49.87C93.1513 49.7967 93.4247 49.68 93.6313 49.52C93.838 49.3533 93.9413 49.1333 93.9413 48.86C93.9413 48.6867 93.8813 48.5467 93.7613 48.44C93.648 48.3267 93.468 48.27 93.2213 48.27C93.008 48.27 92.798 48.3367 92.5913 48.47C92.3847 48.6033 92.198 48.7967 92.0313 49.05C91.8647 49.3033 91.7313 49.61 91.6313 49.97H91.7013ZM95.3816 53L96.5216 47.64H97.3916L96.9316 49.87H99.4516L99.9316 47.64H100.812L99.6816 53H98.7916L99.2916 50.6H96.7716L96.2616 53H95.3816ZM101.387 53L102.527 47.64H103.247L103.137 48.63H103.187C103.307 48.4633 103.447 48.2967 103.607 48.13C103.774 47.9633 103.964 47.8233 104.177 47.71C104.397 47.5967 104.644 47.54 104.917 47.54C105.284 47.54 105.564 47.6467 105.757 47.86C105.957 48.0667 106.077 48.3567 106.117 48.73H106.157C106.291 48.53 106.447 48.34 106.627 48.16C106.814 47.98 107.021 47.8333 107.247 47.72C107.474 47.6 107.724 47.54 107.997 47.54C108.411 47.54 108.731 47.6533 108.957 47.88C109.184 48.1067 109.297 48.4333 109.297 48.86C109.297 49.02 109.287 49.17 109.267 49.31C109.247 49.4433 109.221 49.5867 109.187 49.74L108.497 53H107.607L108.327 49.64C108.361 49.4867 108.384 49.3567 108.397 49.25C108.411 49.1433 108.417 49.04 108.417 48.94C108.417 48.74 108.361 48.58 108.247 48.46C108.141 48.34 107.971 48.28 107.737 48.28C107.577 48.28 107.407 48.3267 107.227 48.42C107.047 48.5067 106.871 48.6433 106.697 48.83C106.524 49.0167 106.367 49.2567 106.227 49.55C106.087 49.8367 105.974 50.18 105.887 50.58L105.377 53H104.497L105.207 49.64C105.241 49.4867 105.264 49.36 105.277 49.26C105.291 49.1533 105.297 49.06 105.297 48.98C105.297 48.76 105.247 48.59 105.147 48.47C105.047 48.3433 104.881 48.28 104.647 48.28C104.487 48.28 104.314 48.3233 104.127 48.41C103.947 48.4967 103.771 48.6367 103.597 48.83C103.424 49.0167 103.264 49.2633 103.117 49.57C102.971 49.8767 102.851 50.25 102.757 50.69L102.267 53H101.387Z" fill="black"/>
</g>
<defs>
<clipPath id="clip0_210_80">
<rect width="237" height="59" fill="white"/>
</clipPath>
</defs>
</svg>
