<svg width="341" height="341" viewBox="0 0 341 341" fill="none" xmlns="http://www.w3.org/2000/svg">
<g clip-path="url(#clip0_209_60)">
<g clip-path="url(#clip1_209_60)">
<g clip-path="url(#clip2_209_60)">
<g clip-path="url(#clip3_209_60)">
<g clip-path="url(#clip4_209_60)">
<g clip-path="url(#clip5_209_60)">
<path d="M0.534729 169.2C0.534729 75.4696 76.5178 -0.513428 170.248 -0.513428C263.979 -0.513428 339.962 75.4696 339.966 169.2C339.966 262.931 263.983 338.914 170.248 338.918C76.5178 338.918 0.534729 262.934 0.534729 169.2ZM170.248 325.524C256.582 325.524 326.568 255.537 326.572 169.2C326.572 82.8669 256.585 12.8804 170.248 12.8804C83.9151 12.8804 13.9286 82.8669 13.9286 169.2C13.9286 255.533 83.9151 325.52 170.248 325.524Z" fill="black"/>
<path d="M170.25 337.22C263.044 337.22 338.268 261.995 338.268 169.202C338.268 76.4079 263.044 1.18372 170.25 1.18372C77.4561 1.18372 2.23187 76.4079 2.23187 169.202C2.23187 261.995 77.4561 337.22 170.25 337.22Z" fill="black"/>
<g clip-path="url(#clip6_209_60)">
<g clip-path="url(#clip7_209_60)">
<path d="M255.944 171.612L234.128 118.063H243.622C246.079 118.063 248.069 116.073 248.069 113.617V109.17C248.069 106.942 246.419 105.056 244.209 104.763L180.522 96.2695C178.012 93.2101 174.252 91.3824 170.25 91.3824C166.248 91.3824 162.488 93.2101 159.978 96.2695L96.2882 104.761C94.0804 105.056 92.4306 106.942 92.4306 109.17V113.617C92.4306 116.073 94.4206 118.063 96.8774 118.063H106.371L84.5553 171.612C82.6877 172.137 81.3136 173.837 81.3136 175.872V182.542C81.3136 184.999 83.3035 186.989 85.7604 186.989H86.1428L93.7335 194.58C94.5673 195.413 95.699 195.883 96.8774 195.883H125.782C126.96 195.883 128.092 195.413 128.926 194.58L136.516 186.989H136.899C139.356 186.989 141.346 184.999 141.346 182.542V175.872C141.346 173.837 139.972 172.137 138.104 171.612L116.288 118.063H161.356V211.446H159.133C156.676 211.446 154.686 213.436 154.686 215.893V222.946L146.175 231.457H141.346C138.889 231.457 136.899 233.447 136.899 235.904V242.574C136.899 245.031 138.889 247.021 141.346 247.021H199.154C201.611 247.021 203.601 245.031 203.601 242.574V235.904C203.601 233.447 201.611 231.457 199.154 231.457H194.325L185.814 222.946V215.893C185.814 213.436 183.824 211.446 181.367 211.446H179.143V118.063H224.212L202.396 171.612C200.528 172.137 199.154 173.837 199.154 175.872V182.542C199.154 184.999 201.144 186.989 203.601 186.989H203.983L211.574 194.58C212.408 195.413 213.542 195.883 214.718 195.883H243.622C244.798 195.883 245.932 195.413 246.766 194.58L254.357 186.989H254.739C257.196 186.989 259.186 184.999 259.186 182.542V175.872C259.186 173.837 257.812 172.137 255.944 171.612ZM134.675 180.319H87.9838V178.095H134.675V180.319ZM131.531 182.542L124.861 189.212H97.7979L91.1277 182.542H131.531ZM91.8303 171.425L111.33 123.568L130.829 171.425H91.8303ZM179.088 111.393C180.498 109.53 181.367 107.235 181.367 104.723C181.367 104.163 181.282 103.627 181.202 103.091L241.399 111.115V111.393H179.088ZM196.931 238.127V240.351H143.569V238.127H196.931ZM151.16 235.904L160.084 226.979C160.14 226.986 160.189 227.01 160.245 227.01H180.255C180.311 227.01 180.36 226.986 180.415 226.979L189.34 235.904H151.16ZM99.1008 111.393V111.115L159.297 103.089C159.217 103.627 159.133 104.163 159.133 104.723C159.133 107.235 160.002 109.53 161.414 111.393H99.1008ZM176.92 104.723C176.92 108.4 173.927 111.393 170.25 111.393C166.572 111.393 163.58 108.4 163.58 104.723C163.58 101.045 166.572 98.0527 170.25 98.0527C173.927 98.0527 176.92 101.045 176.92 104.723ZM168.026 115.615C168.745 115.762 169.489 115.84 170.25 115.84C171.01 115.84 171.755 115.762 172.473 115.615V213.67H168.026V115.615ZM179.143 218.117V224.787H161.356V218.117H179.143ZM252.516 180.319H205.824V178.095H252.516V180.319ZM249.372 182.542L242.702 189.212H215.638L208.968 182.542H249.372ZM209.671 171.425L229.17 123.568L248.669 171.425H209.671Z" fill="white"/>
</g>
</g>
</g>
</g>
</g>
</g>
</g>
</g>
<defs>
<clipPath id="clip0_209_60">
<rect width="340.07" height="340.131" fill="white"/>
</clipPath>
<clipPath id="clip1_209_60">
<rect width="1500" height="556.5" fill="white" transform="translate(-579.75 0.282227)"/>
</clipPath>
<clipPath id="clip2_209_60">
<rect width="1497.33" height="558.091" fill="white" transform="translate(-578.413 -0.513428)"/>
</clipPath>
<clipPath id="clip3_209_60">
<rect width="1497.33" height="558.091" fill="white" transform="translate(-578.413 -0.513428)"/>
</clipPath>
<clipPath id="clip4_209_60">
<rect width="339.43" height="339.43" fill="white" transform="translate(0.534729 -0.513428)"/>
</clipPath>
<clipPath id="clip5_209_60">
<rect width="339.43" height="339.43" fill="white" transform="translate(0.534729 -0.513428)"/>
</clipPath>
<clipPath id="clip6_209_60">
<rect width="177.873" height="155.638" fill="white" transform="translate(81.3136 91.3824)"/>
</clipPath>
<clipPath id="clip7_209_60">
<rect width="177.873" height="155.638" fill="white" transform="translate(81.3136 91.3824)"/>
</clipPath>
</defs>
</svg>
